<svg width="31" height="32" viewBox="0 0 31 32" fill="none" xmlns="http://www.w3.org/2000/svg">
<path d="M15.4958 10.7174C12.6497 10.7174 10.3271 13.0833 10.3271 15.9823C10.3271 18.8814 12.6497 21.2472 15.4958 21.2472C18.342 21.2472 20.6646 18.8814 20.6646 15.9823C20.6646 13.0833 18.342 10.7174 15.4958 10.7174ZM30.9983 15.9823C30.9983 13.8021 31.0177 11.6416 30.8975 9.46538C30.7773 6.93759 30.2111 4.69418 28.3964 2.84574C26.5779 0.993343 24.3793 0.420642 21.8977 0.298202C19.7573 0.175762 17.6362 0.195511 15.4997 0.195511C13.3593 0.195511 11.2383 0.175762 9.10176 0.298202C6.62013 0.420642 4.41768 0.997293 2.60299 2.84574C0.784418 4.69813 0.222173 6.93759 0.10197 9.46538C-0.0182344 11.6456 0.00115335 13.8061 0.00115335 15.9823C0.00115335 18.1586 -0.0182344 20.323 0.10197 22.4993C0.222173 25.0271 0.788296 27.2705 2.60299 29.1189C4.42156 30.9713 6.62013 31.544 9.10176 31.6665C11.2422 31.7889 13.3632 31.7691 15.4997 31.7691C17.6401 31.7691 19.7611 31.7889 21.8977 31.6665C24.3793 31.544 26.5817 30.9674 28.3964 29.1189C30.215 27.2665 30.7773 25.0271 30.8975 22.4993C31.0215 20.323 30.9983 18.1625 30.9983 15.9823ZM15.4958 24.0831C11.0948 24.0831 7.54298 20.4652 7.54298 15.9823C7.54298 11.4995 11.0948 7.88156 15.4958 7.88156C19.8968 7.88156 23.4487 11.4995 23.4487 15.9823C23.4487 20.4652 19.8968 24.0831 15.4958 24.0831ZM23.7744 9.44168C22.7468 9.44168 21.9171 8.59645 21.9171 7.54979C21.9171 6.50313 22.7468 5.6579 23.7744 5.6579C24.8019 5.6579 25.6317 6.50313 25.6317 7.54979C25.6321 7.79833 25.5842 8.04448 25.491 8.27415C25.3978 8.50383 25.261 8.71251 25.0884 8.88826C24.9159 9.064 24.711 9.20334 24.4855 9.29831C24.2601 9.39327 24.0184 9.44199 23.7744 9.44168Z" fill="#1C1C1C"/>
</svg>
