<svg width="32" height="32" viewBox="0 0 32 32" fill="none" xmlns="http://www.w3.org/2000/svg">
<path d="M32 16.0801C32 7.30422 24.833 0.194336 16 0.194336C7.161 0.194336 0 7.30422 0 16.0801C0 24.0071 5.849 30.5799 13.5 31.7703V20.6731H9.437V16.0811H13.5V12.5793C13.5 8.59891 15.885 6.40072 19.541 6.40072C21.292 6.40072 23.125 6.71049 23.125 6.71049V10.6194H21.104C19.12 10.6194 18.5 11.8456 18.5 13.1015V16.0801H22.937L22.224 20.6721H18.5V31.7693C26.145 30.5789 32 24.0061 32 16.0791V16.0801Z" fill="#1C1C1C"/>
</svg>
