<svg width="31" height="31" viewBox="0 0 31 31" fill="none" xmlns="http://www.w3.org/2000/svg">
<path d="M15.5 0.194336C6.93948 0.194336 0 7.04186 0 15.489C0 23.936 6.93948 30.7836 15.5 30.7836C24.0605 30.7836 31 23.936 31 15.489C31 7.04186 24.0605 0.194336 15.5 0.194336ZM21.8049 12.7232C21.8114 12.8538 21.813 12.9845 21.813 13.1119C21.813 17.0949 18.7437 21.6849 13.1282 21.6849C11.4689 21.6876 9.84406 21.2173 8.44911 20.3307C8.68646 20.3593 8.93026 20.3705 9.17729 20.3705C10.6078 20.3705 11.9237 19.8909 12.9683 19.0816C12.3317 19.0693 11.7149 18.8612 11.2038 18.4866C10.6927 18.1119 10.3127 17.5892 10.117 16.9913C10.5742 17.0771 11.0451 17.0591 11.4942 16.9388C10.8033 16.8009 10.1819 16.4314 9.73547 15.8931C9.28905 15.3547 9.04507 14.6806 9.0449 13.985V13.9483C9.45661 14.173 9.92807 14.31 10.4286 14.3259C9.78082 13.9004 9.32226 13.2468 9.14669 12.4987C8.97112 11.7507 9.0918 10.9647 9.48406 10.3015C10.2509 11.2319 11.2072 11.9931 12.2911 12.5357C13.375 13.0783 14.5623 13.3902 15.7761 13.4513C15.6218 12.8049 15.6882 12.1264 15.965 11.5211C16.2418 10.9159 16.7136 10.4178 17.3068 10.1044C17.9001 9.79097 18.5817 9.67974 19.2457 9.788C19.9096 9.89625 20.5187 10.2179 20.9783 10.703C21.6615 10.5696 22.3167 10.3223 22.9158 9.97174C22.6881 10.6698 22.2113 11.2625 21.5741 11.6398C22.1793 11.5679 22.7703 11.4073 23.3275 11.1634C22.9182 11.7687 22.4026 12.2969 21.8049 12.7232Z" fill="#1C1C1C"/>
</svg>
