<svg width="38" height="37" viewBox="0 0 38 37" fill="none" xmlns="http://www.w3.org/2000/svg">
<path d="M35.1911 8.51152C29.5728 -0.000281535 18.1021 -2.53082 9.2064 2.7603C0.544816 8.05142 -2.26434 19.5539 3.35398 28.0657L3.82217 28.7558L1.9494 35.6573L8.9723 33.8169L9.67459 34.277C12.7178 35.8873 15.9952 36.8075 19.2726 36.8075C22.784 36.8075 26.2955 35.8873 29.3387 34.0469C38.0003 28.5258 40.5754 17.2534 35.1911 8.51152ZM30.2751 26.2253C29.3387 27.6056 28.1682 28.5258 26.5296 28.7558C25.5932 28.7558 24.4227 29.2159 19.7407 27.3755C15.7611 25.5351 12.4837 22.5445 10.1428 19.0938C8.7382 17.4834 8.03591 15.413 7.80181 13.3425C7.80181 11.5022 8.50411 9.89181 9.67459 8.74157C10.1428 8.28147 10.611 8.05142 11.0792 8.05142H12.2497C12.7178 8.05142 13.186 8.05142 13.4201 8.97162C13.8883 10.1219 15.0588 12.8824 15.0588 13.1125C15.2929 13.3425 15.2929 13.8026 15.0588 14.0327C15.2929 14.4928 15.0588 14.9529 14.8247 15.1829C14.5906 15.413 14.3565 15.8731 14.1224 16.1031C13.6542 16.3332 13.4201 16.7933 13.6542 17.2534C14.5906 18.6337 15.7611 20.014 16.9316 21.1642C18.3362 22.3144 19.7407 23.2346 21.3794 23.9248C21.8476 24.1548 22.3158 24.1548 22.5499 23.6947C22.784 23.2346 23.9545 22.0844 24.4227 21.6243C24.8909 21.1642 25.125 21.1642 25.5932 21.3942L29.3387 23.2346C29.8069 23.4647 30.2751 23.6947 30.5092 23.9248C30.7433 24.6149 30.7433 25.5351 30.2751 26.2253Z" fill="white"/>
</svg>
