<svg width="33" height="33" viewBox="0 0 33 33" fill="none" xmlns="http://www.w3.org/2000/svg">
<path d="M16.5 0C7.3873 0 0 7.3873 0 16.5C0 25.6127 7.3873 33 16.5 33C25.6127 33 33 25.6127 33 16.5C33 7.3873 25.6127 0 16.5 0ZM10.5703 6.55408C10.9103 6.53403 11.2176 6.73723 11.4505 7.09789L13.7064 11.376C13.9439 11.8829 13.8089 12.4257 13.4546 12.7879L12.4213 13.8211C12.3576 13.9085 12.3156 14.007 12.3146 14.1152C12.7108 15.649 13.9128 17.0638 14.9733 18.0368C16.0338 19.0097 17.1736 20.327 18.6531 20.6391C18.836 20.6901 19.0601 20.7084 19.1909 20.5867L20.3914 19.3642C20.8057 19.0501 21.4052 18.8979 21.8476 19.1547H21.8677L25.9383 21.5576C26.5358 21.9321 26.5977 22.656 26.1699 23.0964L23.3663 25.8779C22.9522 26.3025 22.4022 26.4453 21.8678 26.4459C19.5042 26.3751 17.2709 25.2151 15.4366 24.0229C12.4256 21.8324 9.66369 19.1156 7.92976 15.8333C7.26476 14.4569 6.48357 12.7008 6.55812 11.1645C6.56477 10.5866 6.72114 10.0204 7.12814 9.64788L9.93184 6.84417C10.1502 6.65833 10.3663 6.56612 10.5703 6.55408Z" fill="white"/>
</svg>
