<svg width="38" height="37" viewBox="0 0 38 37" fill="none" xmlns="http://www.w3.org/2000/svg">
<path d="M18.541 12.1958C15.1365 12.1958 12.3582 14.9378 12.3582 18.2976C12.3582 21.6575 15.1365 24.3995 18.541 24.3995C21.9456 24.3995 24.7239 21.6575 24.7239 18.2976C24.7239 14.9378 21.9456 12.1958 18.541 12.1958ZM37.085 18.2976C37.085 15.7709 37.1082 13.267 36.9644 10.7448C36.8206 7.81516 36.1434 5.21514 33.9727 3.07287C31.7973 0.926017 29.1674 0.262279 26.1989 0.120377C23.6385 -0.021526 21.1014 0.00136155 18.5457 0.00136155C15.9853 0.00136155 13.4482 -0.021526 10.8925 0.120377C7.92396 0.262279 5.2894 0.930594 3.11867 3.07287C0.943307 5.21971 0.270753 7.81516 0.126965 10.7448C-0.0168223 13.2715 0.00636926 15.7754 0.00636926 18.2976C0.00636926 20.8198 -0.0168223 23.3283 0.126965 25.8505C0.270753 28.7801 0.947945 31.3801 3.11867 33.5224C5.29404 35.6693 7.92396 36.333 10.8925 36.4749C13.4528 36.6168 15.99 36.5939 18.5457 36.5939C21.106 36.5939 23.6432 36.6168 26.1989 36.4749C29.1674 36.333 31.802 35.6647 33.9727 33.5224C36.148 31.3756 36.8206 28.7801 36.9644 25.8505C37.1128 23.3283 37.085 20.8244 37.085 18.2976ZM18.541 27.6861C13.2766 27.6861 9.02787 23.4931 9.02787 18.2976C9.02787 13.1022 13.2766 8.90918 18.541 8.90918C23.8055 8.90918 28.0542 13.1022 28.0542 18.2976C28.0542 23.4931 23.8055 27.6861 18.541 27.6861ZM28.4438 10.7173C27.2147 10.7173 26.2221 9.73771 26.2221 8.52467C26.2221 7.31163 27.2147 6.33205 28.4438 6.33205C29.673 6.33205 30.6656 7.31163 30.6656 8.52467C30.6659 8.81271 30.6087 9.09799 30.4972 9.36418C30.3857 9.63036 30.222 9.87222 30.0157 10.0759C29.8093 10.2796 29.5642 10.4411 29.2945 10.5511C29.0248 10.6612 28.7357 10.7177 28.4438 10.7173Z" fill="white"/>
</svg>
