<svg width="33" height="33" viewBox="0 0 33 33" fill="none" xmlns="http://www.w3.org/2000/svg">
<circle cx="16.5" cy="16.5" r="16.5" fill="white"/>
<path d="M26 21.5556V12.8889C26 12.8889 17.355 19.0037 16.5142 19.321C15.6877 19.0181 7 12.8889 7 12.8889V21.5556C7 22.7593 7.25175 23 8.425 23H24.575C25.7763 23 26 22.7886 26 21.5556ZM25.9862 11.1897C25.9862 10.313 25.734 10 24.575 10H8.425C7.23275 10 7 10.3756 7 11.2519L7.01425 11.3867C7.01425 11.3867 15.597 17.3763 16.5142 17.7037C17.4832 17.3233 26 11.2519 26 11.2519L25.9862 11.1897Z" fill="black"/>
</svg>
