<svg width="19" height="17" viewBox="0 0 19 17" fill="none" xmlns="http://www.w3.org/2000/svg">
<path d="M16.8313 4.01605C14.2025 0.352418 8.83542 -0.736769 4.67317 1.54062C0.620449 3.81801 -0.693945 8.76887 1.93484 12.4325L2.15391 12.7295L1.27765 15.7001L4.56363 14.9079L4.89223 15.106C6.31616 15.7991 7.84962 16.1951 9.38308 16.1951C11.0261 16.1951 12.6691 15.7991 14.093 15.0069C18.1457 12.6305 19.3506 7.7787 16.8313 4.01605ZM14.5311 11.6404C14.093 12.2345 13.5453 12.6305 12.7786 12.7295C12.3405 12.7295 11.7928 12.9276 9.60215 12.1354C7.74009 11.3433 6.20663 10.0561 5.1113 8.57083C4.4541 7.87771 4.1255 6.98656 4.01597 6.09541C4.01597 5.30327 4.34457 4.61015 4.89223 4.11507C5.1113 3.91703 5.33036 3.81801 5.54943 3.81801H6.09709C6.31616 3.81801 6.53523 3.81801 6.64476 4.21408C6.86382 4.70917 7.41149 5.89737 7.41149 5.99639C7.52102 6.09541 7.52102 6.29344 7.41149 6.39246C7.52102 6.59049 7.41149 6.78853 7.30196 6.88754C7.19242 6.98656 7.08289 7.18459 6.97336 7.28361C6.75429 7.38263 6.64476 7.58066 6.75429 7.7787C7.19242 8.3728 7.74009 8.9669 8.28775 9.46199C8.94495 9.95707 9.60215 10.3531 10.3689 10.6502C10.5879 10.7492 10.807 10.7492 10.9165 10.5512C11.0261 10.3531 11.5737 9.85805 11.7928 9.66002C12.0119 9.46199 12.1214 9.46199 12.3405 9.561L14.093 10.3531C14.3121 10.4522 14.5311 10.5512 14.6407 10.6502C14.7502 10.9472 14.7502 11.3433 14.5311 11.6404Z" fill="#A98668"/>
</svg>
