<svg width="37" height="37" viewBox="0 0 37 37" fill="none" xmlns="http://www.w3.org/2000/svg">
<path d="M18.4038 0.116211C8.23472 0.116211 0 8.26122 0 18.297C0 28.3328 8.23472 36.4778 18.4038 36.4778C28.5912 36.4778 36.8444 28.3328 36.8444 18.297C36.8444 8.26122 28.5912 0.116211 18.4038 0.116211ZM31.1703 11.0247H25.7358C25.1592 8.77293 24.3054 6.5993 23.1935 4.55233C26.554 5.69409 29.3855 7.99164 31.1703 11.0247ZM18.4222 3.8251C19.9512 6.0068 21.1487 8.42485 21.9408 11.0247H14.9035C15.6957 8.42485 16.8931 6.0068 18.4222 3.8251ZM4.16341 21.9332C3.86866 20.7696 3.68444 19.5515 3.68444 18.297C3.68444 17.0426 3.86866 15.8244 4.16341 14.6609H10.3901C10.2427 15.8608 10.1322 17.0607 10.1322 18.297C10.1322 19.5333 10.2427 20.7333 10.3901 21.9332H4.16341ZM5.67403 25.5694H11.1086C11.6981 27.842 12.5455 30.0237 13.6508 32.0417C10.2869 30.9062 7.45331 28.607 5.67403 25.5694ZM11.1086 11.0247H5.67403C7.45331 7.98701 10.2869 5.68785 13.6508 4.55233C12.5389 6.5993 11.6852 8.77293 11.1086 11.0247ZM18.4222 32.769C16.8931 30.5873 15.6957 28.1692 14.9035 25.5694H21.9408C21.1487 28.1692 19.9512 30.5873 18.4222 32.769ZM22.733 21.9332H14.1114C13.9456 20.7333 13.8166 19.5333 13.8166 18.297C13.8166 17.0607 13.9456 15.8426 14.1114 14.6609H22.733C22.8988 15.8426 23.0277 17.0607 23.0277 18.297C23.0277 19.5333 22.8988 20.7333 22.733 21.9332ZM23.1935 32.0417C24.2989 30.0237 25.1463 27.842 25.7358 25.5694H31.1703C29.3855 28.6024 26.554 30.9 23.1935 32.0417ZM26.4543 21.9332C26.6016 20.7333 26.7122 19.5333 26.7122 18.297C26.7122 17.0607 26.6016 15.8608 26.4543 14.6609H32.681C32.9757 15.8244 33.1599 17.0426 33.1599 18.297C33.1599 19.5515 32.9757 20.7696 32.681 21.9332H26.4543Z" fill="white"/>
</svg>
