<svg width="411" height="76" viewBox="0 0 411 76" fill="none" xmlns="http://www.w3.org/2000/svg">
<path d="M32.75 60.207C32.75 62.4206 32.2943 64.3737 31.3828 66.0664C30.4388 67.7917 29.2018 69.2402 27.6719 70.4121C26.1419 71.584 24.3678 72.4792 22.3496 73.0977C20.3314 73.6836 18.2318 73.9766 16.0508 73.9766C13.4141 73.9766 10.875 73.6022 8.43359 72.8535C5.99219 72.1048 3.74609 70.9492 1.69531 69.3867V58.2051L2.47656 58.0098C2.89974 59.3444 3.55078 60.7116 4.42969 62.1113C5.27604 63.5436 6.28516 64.8294 7.45703 65.9688C8.62891 67.1406 9.94727 68.0846 11.4121 68.8008C12.8444 69.5495 14.3581 69.9238 15.9531 69.9238C17.1901 69.9238 18.362 69.696 19.4688 69.2402C20.543 68.7845 21.5033 68.166 22.3496 67.3848C23.1634 66.6035 23.8145 65.6758 24.3027 64.6016C24.7585 63.5273 24.9863 62.3555 24.9863 61.0859C24.9863 60.207 24.8073 59.3607 24.4492 58.5469C24.0586 57.7331 23.5703 56.9681 22.9844 56.252C22.3659 55.5358 21.6823 54.8848 20.9336 54.2988C20.1849 53.7129 19.4362 53.2083 18.6875 52.7852L10.1914 48.0977C7.65234 46.6979 5.68294 44.8913 4.2832 42.6777C2.88346 40.4967 2.18359 37.974 2.18359 35.1094C2.18359 33.1237 2.59049 31.3659 3.4043 29.8359C4.2181 28.306 5.30859 27.0039 6.67578 25.9297C8.04297 24.888 9.62174 24.0905 11.4121 23.5371C13.2025 22.9837 15.0905 22.707 17.0762 22.707C19.3874 22.707 21.5358 22.9186 23.5215 23.3418C25.5072 23.765 27.4277 24.6764 29.2832 26.0762V35.6953H28.8926C28.6973 34.4909 28.209 33.319 27.4277 32.1797C26.6465 31.0729 25.7025 30.0801 24.5957 29.2012C23.4889 28.3548 22.2845 27.6712 20.9824 27.1504C19.6478 26.6621 18.3457 26.418 17.0762 26.418C16.0671 26.418 15.1068 26.5645 14.1953 26.8574C13.2513 27.1829 12.4212 27.6224 11.7051 28.1758C10.9889 28.7617 10.4193 29.4616 9.99609 30.2754C9.57292 31.0892 9.36133 32.0007 9.36133 33.0098C9.36133 33.9538 9.50781 34.8164 9.80078 35.5977C10.0938 36.4115 10.5007 37.1439 11.0215 37.7949C11.5423 38.4785 12.1445 39.0807 12.8281 39.6016C13.5117 40.1549 14.2279 40.6595 14.9766 41.1152L24.2539 46.584C25.6536 47.4303 26.8906 48.3092 27.9648 49.2207C29.0065 50.1647 29.8854 51.1738 30.6016 52.248C31.3177 53.3223 31.8548 54.5104 32.2129 55.8125L32.75 60.207ZM53.9805 37.5996V28.3223C56.0964 26.7598 58.375 25.474 60.8164 24.4648C63.2253 23.4883 66.0085 23 69.166 23C71.7051 23 74 23.2604 76.0508 23.7812C78.1016 24.3021 79.8594 25.0508 81.3242 26.0273C82.7565 27.0365 83.8633 28.2734 84.6445 29.7383C85.3932 31.2357 85.7676 32.9284 85.7676 34.8164V66.5059C85.7676 67.3197 86.0605 68.0684 86.6465 68.752C87.1999 69.4681 87.9486 70.0866 88.8926 70.6074L81.373 73.7812C80.3314 73.0977 79.5176 72.235 78.9316 71.1934C78.3457 70.1842 78.0527 69.0612 78.0527 67.8242C77.1738 68.8008 76.1484 69.6634 74.9766 70.4121C73.7721 71.1608 72.5026 71.7793 71.168 72.2676C69.8333 72.7884 68.4499 73.1953 67.0176 73.4883C65.5527 73.7487 64.1042 73.8789 62.6719 73.8789C60.9141 73.8789 59.2214 73.6185 57.5938 73.0977C55.9661 72.5443 54.5339 71.7305 53.2969 70.6562C52.0273 69.582 51.0345 68.2637 50.3184 66.7012C49.5697 65.1387 49.1953 63.332 49.1953 61.2812C49.1953 59.3932 49.5697 57.6517 50.3184 56.0566C51.0671 54.4941 52.2227 53.0293 53.7852 51.6621C55.3477 50.2949 57.3496 49.0254 59.791 47.8535C62.1999 46.6816 65.0645 45.5586 68.3848 44.4844L73.3652 42.8242C74.3092 42.4987 75.1882 42.1081 76.002 41.6523C76.8158 41.1966 77.4993 40.7083 78.0527 40.1875V34.5234C78.0527 33.1888 77.8249 32.0495 77.3691 31.1055C76.8809 30.1615 76.2298 29.3965 75.416 28.8105C74.5697 28.2246 73.6094 27.7852 72.5352 27.4922C71.4284 27.2318 70.2728 27.1016 69.0684 27.1016C67.6035 27.1016 66.1549 27.362 64.7227 27.8828C63.2904 28.4036 61.9395 29.1198 60.6699 30.0312C59.4004 30.9753 58.2285 32.082 57.1543 33.3516C56.0801 34.6536 55.1849 36.0697 54.4688 37.5996H53.9805ZM78.0527 45.4121L68.3848 48.8789C67.0827 49.3346 65.8132 49.888 64.5762 50.5391C63.3066 51.2227 62.1836 52.0365 61.207 52.9805C60.2305 53.9245 59.4492 54.9987 58.8633 56.2031C58.2773 57.4401 57.9844 58.8398 57.9844 60.4023C57.9844 61.444 58.1634 62.4206 58.5215 63.332C58.8796 64.276 59.4329 65.1061 60.1816 65.8223C60.8978 66.571 61.8418 67.1569 63.0137 67.5801C64.153 68.0033 65.5039 68.2148 67.0664 68.2148C68.043 68.2148 69.0521 68.0846 70.0938 67.8242C71.1029 67.5964 72.0957 67.2708 73.0723 66.8477C74.0163 66.4245 74.9277 65.9036 75.8066 65.2852C76.653 64.6992 77.4017 64.0319 78.0527 63.2832V45.4121ZM149.576 47.6094C149.576 51.776 148.876 55.4544 147.477 58.6445C146.077 61.8672 144.27 64.569 142.057 66.75C139.843 68.931 137.369 70.5749 134.635 71.6816C131.9 72.821 129.215 73.3906 126.578 73.3906C124.723 73.3906 122.851 73.2279 120.963 72.9023C119.042 72.5768 117.219 72.1211 115.494 71.5352C113.736 70.9818 112.109 70.3307 110.611 69.582C109.114 68.8659 107.812 68.1009 106.705 67.2871V7.42383C106.705 6.28451 106.51 5.42188 106.119 4.83594C105.696 4.25 105.159 3.81055 104.508 3.51758L114.371 1.41797V29.2012C116.812 27.2806 119.286 25.7669 121.793 24.6602C124.299 23.5534 126.757 23 129.166 23C131.803 23 134.358 23.4883 136.832 24.4648C139.273 25.474 141.438 26.9876 143.326 29.0059C145.214 31.0241 146.728 33.5794 147.867 36.6719L149.576 47.6094ZM141.178 48.1953C141.178 44.9076 140.787 42.0267 140.006 39.5527C139.225 37.1113 138.134 35.0768 136.734 33.4492C135.335 31.8216 133.691 30.6009 131.803 29.7871C129.915 29.0059 127.88 28.6152 125.699 28.6152C123.583 28.6152 121.549 29.1035 119.596 30.0801C117.643 31.0566 115.901 32.4238 114.371 34.1816V64.0156C115.576 65.7083 117.154 67.1081 119.107 68.2148C121.028 69.3542 123.355 69.9238 126.09 69.9238C128.271 69.9238 130.289 69.3867 132.145 68.3125C134 67.2708 135.595 65.7897 136.93 63.8691C138.264 61.9486 139.306 59.6536 140.055 56.9844L141.178 48.1953ZM164.752 73C165.305 72.6094 165.745 72.1048 166.07 71.4863C166.396 70.8678 166.559 70.2005 166.559 69.4844V7.42383C166.559 6.25195 166.363 5.37305 165.973 4.78711C165.549 4.23372 165.012 3.81055 164.361 3.51758L174.273 1.41797V69.4844C174.273 70.2005 174.436 70.8678 174.762 71.4863C175.087 72.1048 175.527 72.6094 176.08 73H164.752ZM237.594 48.0977C237.594 51.7109 236.992 55.0964 235.787 58.2539C234.583 61.4115 232.939 64.1784 230.855 66.5547C228.772 68.931 226.331 70.8027 223.531 72.1699C220.732 73.5371 217.753 74.2207 214.596 74.2207C211.438 74.2207 208.476 73.5371 205.709 72.1699C202.91 70.8027 200.484 68.931 198.434 66.5547C196.35 64.1784 194.706 61.4115 193.502 58.2539C192.298 55.0964 191.695 51.7109 191.695 48.0977C191.695 44.4844 192.298 41.0827 193.502 37.8926C194.706 34.7025 196.35 31.9193 198.434 29.543C200.484 27.1667 202.91 25.2949 205.709 23.9277C208.476 22.5605 211.438 21.877 214.596 21.877C217.753 21.877 220.732 22.5605 223.531 23.9277C226.331 25.2949 228.772 27.1667 230.855 29.543C232.939 31.9193 234.583 34.7025 235.787 37.8926L237.594 48.0977ZM228.365 48.0977C228.365 45.0052 228.072 42.0918 227.486 39.3574C226.868 36.623 225.973 34.2305 224.801 32.1797C223.629 30.1615 222.197 28.5501 220.504 27.3457C218.779 26.1738 216.809 25.5879 214.596 25.5879C212.382 25.5879 210.429 26.1738 208.736 27.3457C207.011 28.5501 205.579 30.1615 204.439 32.1797C203.268 34.2305 202.389 36.623 201.803 39.3574C201.184 42.0918 200.875 45.0052 200.875 48.0977C200.875 51.1901 201.184 54.0872 201.803 56.7891C202.389 59.5234 203.268 61.8997 204.439 63.918C205.579 65.9362 207.011 67.5312 208.736 68.7031C210.429 69.9076 212.382 70.5098 214.596 70.5098C216.809 70.5098 218.779 69.9076 220.504 68.7031C222.197 67.5312 223.629 65.9362 224.801 63.918C225.973 61.8997 226.868 59.5234 227.486 56.7891L228.365 48.0977ZM284.508 73C285.061 72.6094 285.501 72.1048 285.826 71.4863C286.152 70.8678 286.314 70.2005 286.314 69.4844V37.4043C286.314 35.6139 286.038 34.0677 285.484 32.7656C284.931 31.4961 284.182 30.4544 283.238 29.6406C282.294 28.8268 281.22 28.2246 280.016 27.834C278.779 27.4759 277.477 27.2969 276.109 27.2969C273.701 27.2969 271.373 27.834 269.127 28.9082C266.848 29.9824 264.846 31.4798 263.121 33.4004V69.4844C263.121 70.2005 263.284 70.8678 263.609 71.4863C263.935 72.1048 264.374 72.6094 264.928 73H253.6C254.153 72.6094 254.592 72.1048 254.918 71.4863C255.243 70.8678 255.406 70.2005 255.406 69.4844V29.1035C255.406 27.9642 255.211 27.0853 254.82 26.4668C254.397 25.8483 253.86 25.3926 253.209 25.0996L263.121 23V29.4941C265.432 27.0527 268.02 25.2135 270.885 23.9766C273.717 22.7396 276.565 22.1211 279.43 22.1211C281.318 22.1211 283.141 22.3815 284.898 22.9023C286.656 23.4232 288.219 24.2533 289.586 25.3926C290.921 26.5319 291.995 27.9967 292.809 29.7871C293.622 31.61 294.029 33.8073 294.029 36.3789V69.4844C294.029 70.2005 294.192 70.8678 294.518 71.4863C294.843 72.1048 295.283 72.6094 295.836 73H284.508ZM320.777 68.8008C320.777 69.4844 320.647 70.1354 320.387 70.7539C320.126 71.3724 319.768 71.8932 319.312 72.3164C318.824 72.7721 318.271 73.1302 317.652 73.3906C317.034 73.651 316.383 73.7812 315.699 73.7812C315.016 73.7812 314.381 73.651 313.795 73.3906C313.176 73.1302 312.639 72.7721 312.184 72.3164C311.695 71.8932 311.321 71.3724 311.061 70.7539C310.8 70.1354 310.67 69.4844 310.67 68.8008C310.67 68.1172 310.8 67.4661 311.061 66.8477C311.321 66.2292 311.695 65.6758 312.184 65.1875C312.639 64.7318 313.176 64.3737 313.795 64.1133C314.381 63.8529 315.016 63.7227 315.699 63.7227C316.383 63.7227 317.034 63.8529 317.652 64.1133C318.271 64.3737 318.824 64.7318 319.312 65.1875C319.768 65.6758 320.126 66.2292 320.387 66.8477L320.777 68.8008ZM347.965 6.39844C347.965 7.04948 347.851 7.65169 347.623 8.20508C347.363 8.79102 347.021 9.29557 346.598 9.71875C346.142 10.1745 345.637 10.5326 345.084 10.793C344.498 11.0534 343.863 11.1836 343.18 11.1836C342.496 11.1836 341.861 11.0534 341.275 10.793C340.657 10.5326 340.136 10.1745 339.713 9.71875C339.257 9.29557 338.899 8.79102 338.639 8.20508C338.378 7.65169 338.248 7.04948 338.248 6.39844C338.248 5.71484 338.378 5.08008 338.639 4.49414C338.899 3.9082 339.257 3.38737 339.713 2.93164C340.136 2.50846 340.657 2.16667 341.275 1.90625C341.861 1.64583 342.496 1.51562 343.18 1.51562C344.547 1.51562 345.686 1.98763 346.598 2.93164L347.965 6.39844ZM338.346 73C338.899 72.6094 339.339 72.1048 339.664 71.4863C339.99 70.8678 340.152 70.2005 340.152 69.4844V29.1035C340.152 27.9642 339.957 27.0853 339.566 26.4668C339.143 25.8483 338.606 25.3926 337.955 25.0996L347.867 23V69.4844C347.867 70.2005 348.03 70.8678 348.355 71.4863C348.681 72.1048 349.12 72.6094 349.674 73H338.346ZM395.758 73C396.311 72.6094 396.751 72.1048 397.076 71.4863C397.402 70.8678 397.564 70.2005 397.564 69.4844V37.4043C397.564 35.6139 397.288 34.0677 396.734 32.7656C396.181 31.4961 395.432 30.4544 394.488 29.6406C393.544 28.8268 392.47 28.2246 391.266 27.834C390.029 27.4759 388.727 27.2969 387.359 27.2969C384.951 27.2969 382.623 27.834 380.377 28.9082C378.098 29.9824 376.096 31.4798 374.371 33.4004V69.4844C374.371 70.2005 374.534 70.8678 374.859 71.4863C375.185 72.1048 375.624 72.6094 376.178 73H364.85C365.403 72.6094 365.842 72.1048 366.168 71.4863C366.493 70.8678 366.656 70.2005 366.656 69.4844V29.1035C366.656 27.9642 366.461 27.0853 366.07 26.4668C365.647 25.8483 365.11 25.3926 364.459 25.0996L374.371 23V29.4941C376.682 27.0527 379.27 25.2135 382.135 23.9766C384.967 22.7396 387.815 22.1211 390.68 22.1211C392.568 22.1211 394.391 22.3815 396.148 22.9023C397.906 23.4232 399.469 24.2533 400.836 25.3926C402.171 26.5319 403.245 27.9967 404.059 29.7871C404.872 31.61 405.279 33.8073 405.279 36.3789V69.4844C405.279 70.2005 405.442 70.8678 405.768 71.4863C406.093 72.1048 406.533 72.6094 407.086 73H395.758Z" fill="#AA8768"/>
<path d="M32.75 60.207H33.75V60.1461L33.7426 60.0857L32.75 60.207ZM31.3828 66.0664L32.2601 66.5464L32.2633 66.5405L31.3828 66.0664ZM22.3496 73.0977L22.6284 74.058L22.6355 74.0559L22.6426 74.0538L22.3496 73.0977ZM1.69531 69.3867H0.695312V69.882L1.08927 70.1822L1.69531 69.3867ZM1.69531 58.2051L1.45278 57.2349L0.695312 57.4243V58.2051H1.69531ZM2.47656 58.0098L3.42979 57.7075L3.14575 56.8117L2.23403 57.0396L2.47656 58.0098ZM4.42969 62.1113L5.29062 61.6026L5.28375 61.591L5.27658 61.5796L4.42969 62.1113ZM7.45703 65.9688L8.16421 65.2616L8.15411 65.2518L7.45703 65.9688ZM11.4121 68.8008L11.8754 67.9146L11.8634 67.9083L11.8513 67.9024L11.4121 68.8008ZM19.4688 69.2402L19.8495 70.165L19.8593 70.1608L19.4688 69.2402ZM22.3496 67.3848L23.0279 68.1196L23.0351 68.1129L23.0421 68.1062L22.3496 67.3848ZM24.3027 64.6016L25.2131 65.0154L25.2184 65.0038L25.2233 64.9921L24.3027 64.6016ZM24.4492 58.5469L25.3645 58.1441L25.3579 58.129L25.3507 58.1141L24.4492 58.5469ZM22.9844 56.252L23.7583 55.6187L23.7499 55.6084L23.7412 55.5983L22.9844 56.252ZM18.6875 52.7852L19.1796 51.9145L19.1706 51.9096L18.6875 52.7852ZM10.1914 48.0977L10.6745 47.2221L10.6742 47.2219L10.1914 48.0977ZM4.2832 42.6777L5.12841 42.1433L5.12479 42.1376L4.2832 42.6777ZM6.67578 25.9297L6.06974 25.1343L6.06382 25.1388L6.05796 25.1434L6.67578 25.9297ZM11.4121 23.5371L11.1168 22.5817L11.4121 23.5371ZM23.5215 23.3418L23.313 24.3198L23.5215 23.3418ZM29.2832 26.0762H30.2832V25.5779L29.8854 25.2779L29.2832 26.0762ZM29.2832 35.6953V36.6953H30.2832V35.6953H29.2832ZM28.8926 35.6953L27.9055 35.8554L28.0417 36.6953H28.8926V35.6953ZM27.4277 32.1797L28.2525 31.6141L28.2447 31.603L27.4277 32.1797ZM24.5957 29.2012L25.2176 28.4181L25.2104 28.4124L25.2032 28.4068L24.5957 29.2012ZM20.9824 27.1504L21.3538 26.2219L21.34 26.2164L21.326 26.2113L20.9824 27.1504ZM14.1953 26.8574L13.8893 25.9054L13.8793 25.9086L13.8693 25.912L14.1953 26.8574ZM11.7051 28.1758L11.0936 27.3845L11.0826 27.393L11.0718 27.4018L11.7051 28.1758ZM9.80078 35.5977L10.7418 35.2589L10.7371 35.2465L9.80078 35.5977ZM11.0215 37.7949L11.8169 37.1889L11.8097 37.1795L11.8024 37.1702L11.0215 37.7949ZM12.8281 39.6016L13.4573 38.8243L13.4459 38.8151L13.4342 38.8061L12.8281 39.6016ZM14.9766 41.1152L14.4566 41.9694L14.4627 41.9731L14.4688 41.9767L14.9766 41.1152ZM24.2539 46.584L24.7714 45.7282L24.7617 45.7225L24.2539 46.584ZM27.9648 49.2207L28.6364 48.4797L28.6243 48.4688L28.6118 48.4582L27.9648 49.2207ZM30.6016 52.248L31.4336 51.6933L30.6016 52.248ZM32.2129 55.8125L33.2055 55.6912L33.1966 55.6182L33.1771 55.5473L32.2129 55.8125ZM31.75 60.207C31.75 62.2803 31.3242 64.066 30.5023 65.5923L32.2633 66.5405C33.2644 64.6814 33.75 62.5608 33.75 60.207H31.75ZM30.5055 65.5864C29.627 67.192 28.4808 68.5328 27.0638 69.6182L28.28 71.206C29.9228 69.9476 31.2506 68.3913 32.2601 66.5464L30.5055 65.5864ZM27.0638 69.6182C25.637 70.7111 23.9718 71.5546 22.0566 72.1415L22.6426 74.0538C24.7638 73.4037 26.6469 72.4569 28.28 71.206L27.0638 69.6182ZM22.0708 72.1373C20.1465 72.696 18.141 72.9766 16.0508 72.9766V74.9766C18.3225 74.9766 20.5162 74.6712 22.6284 74.058L22.0708 72.1373ZM16.0508 72.9766C13.5102 72.9766 11.0701 72.6161 8.72678 71.8975L8.1404 73.8096C10.6799 74.5883 13.318 74.9766 16.0508 74.9766V72.9766ZM8.72678 71.8975C6.39944 71.1837 4.25908 70.0829 2.30136 68.5913L1.08927 70.1822C3.2331 71.8156 5.58494 73.0259 8.1404 73.8096L8.72678 71.8975ZM2.69531 69.3867V58.2051H0.695312V69.3867H2.69531ZM1.93785 59.1752L2.7191 58.9799L2.23403 57.0396L1.45278 57.2349L1.93785 59.1752ZM1.52333 58.312C1.97621 59.7403 2.66673 61.1842 3.5828 62.6431L5.27658 61.5796C4.43484 60.239 3.82327 58.9485 3.42979 57.7075L1.52333 58.312ZM3.56876 62.6201C4.45943 64.1273 5.52333 65.4835 6.75995 66.6857L8.15411 65.2518C7.04699 64.1754 6.09265 62.9599 5.29062 61.6026L3.56876 62.6201ZM6.74992 66.6759C7.99862 67.9245 9.40716 68.9337 10.9729 69.6992L11.8513 67.9024C10.4874 67.2356 9.2592 66.3567 8.16414 65.2616L6.74992 66.6759ZM10.9489 69.687C12.5222 70.5094 14.1945 70.9238 15.9531 70.9238V68.9238C14.5216 68.9238 13.1666 68.5895 11.8754 67.9146L10.9489 69.687ZM15.9531 70.9238C17.3163 70.9238 18.6179 70.672 19.8495 70.1649L19.088 68.3156C18.1061 68.7199 17.0639 68.9238 15.9531 68.9238V70.9238ZM19.8593 70.1608C21.038 69.6608 22.0959 68.9799 23.0279 68.1196L21.6713 66.65C20.9106 67.3522 20.048 67.9082 19.0782 68.3197L19.8593 70.1608ZM23.0421 68.1062C23.9516 67.2331 24.6748 66.1996 25.2131 65.0154L23.3924 64.1878C22.9541 65.152 22.3753 65.9739 21.6571 66.6634L23.0421 68.1062ZM25.2233 64.9921C25.7359 63.7839 25.9863 62.4778 25.9863 61.0859H23.9863C23.9863 62.2332 23.781 63.2708 23.3822 64.211L25.2233 64.9921ZM25.9863 61.0859C25.9863 60.0667 25.7778 59.0833 25.3645 58.1441L23.5339 58.9496C23.8368 59.638 23.9863 60.3473 23.9863 61.0859H25.9863ZM25.3507 58.1141C24.9249 57.2269 24.3933 56.3948 23.7583 55.6187L22.2104 56.8852C22.7473 57.5414 23.1923 58.2393 23.5477 58.9796L25.3507 58.1141ZM23.7412 55.5983C23.0801 54.8329 22.3494 54.137 21.5499 53.5113L20.3173 55.0863C21.0152 55.6325 21.6516 56.2387 22.2276 56.9056L23.7412 55.5983ZM21.5499 53.5113C20.766 52.8978 19.9759 52.3647 19.1796 51.9146L18.1954 53.6557C18.8965 54.0519 19.6038 54.528 20.3173 55.0863L21.5499 53.5113ZM19.1706 51.9096L10.6745 47.2221L9.70833 48.9732L18.2044 53.6607L19.1706 51.9096ZM10.6742 47.2219C8.26662 45.8947 6.42867 44.1995 5.1284 42.1433L3.43801 43.2122C4.93721 45.583 7.03806 47.5012 9.70863 48.9734L10.6742 47.2219ZM5.12479 42.1376C3.83922 40.1345 3.18359 37.8034 3.18359 35.1094H1.18359C1.18359 38.1446 1.92771 40.859 3.44162 43.2179L5.12479 42.1376ZM3.18359 35.1094C3.18359 33.2634 3.56084 31.671 4.28717 30.3055L2.52142 29.3663C1.62015 31.0607 1.18359 32.984 1.18359 35.1094H3.18359ZM4.28717 30.3055C5.03539 28.8989 6.03546 27.7045 7.2936 26.716L6.05796 25.1434C4.58173 26.3033 3.4008 27.7131 2.52142 29.3663L4.28717 30.3055ZM7.28183 26.7251C8.54755 25.7608 10.0191 25.0144 11.7074 24.4925L11.1168 22.5817C9.2244 23.1666 7.53839 24.0153 6.06974 25.1343L7.28183 26.7251ZM11.7074 24.4925C13.3966 23.9704 15.1846 23.707 17.0762 23.707V21.707C14.9964 21.707 13.0084 21.997 11.1168 22.5817L11.7074 24.4925ZM17.0762 23.707C19.3268 23.707 21.4045 23.9131 23.313 24.3198L23.7299 22.3638C21.6671 21.9241 19.448 21.707 17.0762 21.707V23.707ZM23.313 24.3198C25.1366 24.7085 26.9252 25.55 28.681 26.8745L29.8854 25.2779C27.9303 23.8029 25.8777 22.8215 23.7299 22.3638L23.313 24.3198ZM28.2832 26.0762V35.6953H30.2832V26.0762H28.2832ZM29.2832 34.6953H28.8926V36.6953H29.2832V34.6953ZM29.8797 35.5352C29.6578 34.1672 29.106 32.8589 28.2525 31.6142L26.603 32.7452C27.312 33.7791 27.7367 34.8146 27.9055 35.8554L29.8797 35.5352ZM28.2447 31.603C27.4062 30.4152 26.3956 29.3536 25.2176 28.4181L23.9738 29.9843C25.0093 30.8066 25.8867 31.7306 26.6108 32.7564L28.2447 31.603ZM25.2032 28.4068C24.0237 27.5049 22.7398 26.7763 21.3538 26.2219L20.611 28.0789C21.8293 28.5662 22.9542 29.2048 23.9883 29.9955L25.2032 28.4068ZM21.326 26.2113C19.8943 25.6875 18.4761 25.418 17.0762 25.418V27.418C18.2154 27.418 19.4012 27.6367 20.6388 28.0895L21.326 26.2113ZM17.0762 25.418C15.9688 25.418 14.9049 25.579 13.8893 25.9054L14.5013 27.8095C15.3087 27.5499 16.1653 27.418 17.0762 27.418V25.418ZM13.8693 25.912C12.833 26.2694 11.9043 26.758 11.0936 27.3845L12.3165 28.9671C12.9381 28.4867 13.6696 28.0965 14.5213 27.8028L13.8693 25.912ZM11.0718 27.4018C10.2517 28.0729 9.5952 28.8788 9.10888 29.814L10.8833 30.7367C11.2433 30.0444 11.7262 29.4506 12.3383 28.9497L11.0718 27.4018ZM9.10888 29.814C8.6044 30.7842 8.36133 31.8564 8.36133 33.0098H10.3613C10.3613 32.1449 10.5414 31.3942 10.8833 30.7367L9.10888 29.814ZM8.36133 33.0098C8.36133 34.0581 8.52422 35.0415 8.86445 35.9488L10.7371 35.2465C10.4914 34.5913 10.3613 33.8495 10.3613 33.0098H8.36133ZM8.85989 35.9364C9.18871 36.8497 9.64853 37.6795 10.2406 38.4196L11.8024 37.1702C11.3528 36.6083 10.9988 35.9732 10.7417 35.2589L8.85989 35.9364ZM10.2261 38.401C10.8012 39.1559 11.4672 39.8218 12.2221 40.397L13.4342 38.8061C12.8219 38.3396 12.2834 37.8011 11.8169 37.1889L10.2261 38.401ZM12.1989 40.3788C12.9171 40.9602 13.6697 41.4904 14.4566 41.9694L15.4965 40.261C14.786 39.8286 14.1064 39.3497 13.4573 38.8243L12.1989 40.3788ZM14.4688 41.9767L23.7461 47.4455L24.7617 45.7225L15.4844 40.2538L14.4688 41.9767ZM23.7365 47.4397C25.0977 48.2628 26.2901 49.1112 27.3179 49.9832L28.6118 48.4582C27.4911 47.5073 26.2096 46.5979 24.7713 45.7283L23.7365 47.4397ZM27.2933 49.9617C28.2794 50.8553 29.1029 51.8028 29.7695 52.8027L31.4336 51.6933C30.668 50.5449 29.7336 49.4741 28.6364 48.4797L27.2933 49.9617ZM29.7695 52.8027C30.4237 53.7841 30.9176 54.8738 31.2487 56.0777L33.1771 55.5473C32.792 54.1471 32.2117 52.8604 31.4336 51.6933L29.7695 52.8027ZM31.2203 55.9338L31.7574 60.3284L33.7426 60.0857L33.2055 55.6912L31.2203 55.9338ZM53.9805 37.5996H52.9805V38.5996H53.9805V37.5996ZM53.9805 28.3223L53.3864 27.5178L52.9805 27.8176V28.3223H53.9805ZM60.8164 24.4648L60.4407 23.5381L60.4344 23.5407L60.8164 24.4648ZM81.3242 26.0273L81.9002 25.2099L81.8896 25.2024L81.8789 25.1953L81.3242 26.0273ZM84.6445 29.7383L85.539 29.2911L85.5331 29.2793L85.5269 29.2677L84.6445 29.7383ZM86.6465 68.752L87.4378 68.1405L87.4223 68.1204L87.4057 68.1012L86.6465 68.752ZM88.8926 70.6074L89.2814 71.5287L91.18 70.7274L89.3757 69.7318L88.8926 70.6074ZM81.373 73.7812L80.8244 74.6173L81.2704 74.91L81.7619 74.7025L81.373 73.7812ZM78.9316 71.1934L79.8033 70.703L79.7964 70.6912L78.9316 71.1934ZM78.0527 67.8242H79.0527V65.2183L77.3094 67.1553L78.0527 67.8242ZM74.9766 70.4121L75.5045 71.2615L75.515 71.2548L74.9766 70.4121ZM71.168 72.2676L70.8244 71.3285L70.8144 71.3321L70.8044 71.336L71.168 72.2676ZM67.0176 73.4883L67.1926 74.4728L67.2053 74.4706L67.218 74.468L67.0176 73.4883ZM57.5938 73.0977L57.2719 74.0444L57.2804 74.0473L57.289 74.0501L57.5938 73.0977ZM53.2969 70.6562L53.9526 69.9012L53.9428 69.8929L53.2969 70.6562ZM50.3184 66.7012L51.2274 66.2845L51.2239 66.2768L51.2202 66.2691L50.3184 66.7012ZM50.3184 56.0566L49.4165 55.6245L49.4131 55.6317L50.3184 56.0566ZM59.791 47.8535L60.2238 48.7551L60.2285 48.7528L59.791 47.8535ZM68.3848 44.4844L68.6926 45.4359L68.701 45.4331L68.3848 44.4844ZM73.3652 42.8242L73.6815 43.773L73.6912 43.7696L73.3652 42.8242ZM78.0527 40.1875L78.7381 40.9157L79.0527 40.6196V40.1875H78.0527ZM77.3691 31.1055L78.2697 30.6707L78.2637 30.6583L78.2574 30.646L77.3691 31.1055ZM75.416 28.8105L76.0003 27.999L75.9928 27.9936L75.9852 27.9884L75.416 28.8105ZM72.5352 27.4922L72.7983 26.5274L72.7813 26.5228L72.7642 26.5188L72.5352 27.4922ZM60.6699 30.0312L60.0867 29.2189L60.0799 29.2238L60.0732 29.2288L60.6699 30.0312ZM57.1543 33.3516L56.3909 32.7056L56.3829 32.7152L57.1543 33.3516ZM54.4688 37.5996V38.5996H55.1048L55.3744 38.0235L54.4688 37.5996ZM78.0527 45.4121H79.0527V43.9912L77.7152 44.4708L78.0527 45.4121ZM68.3848 48.8789L68.7151 49.8228L68.7223 49.8202L68.3848 48.8789ZM64.5762 50.5391L64.1104 49.6541L64.1021 49.6586L64.5762 50.5391ZM58.8633 56.2031L57.964 55.7656L57.9595 55.775L58.8633 56.2031ZM58.5215 63.332L59.4566 62.9774L59.4522 62.9664L58.5215 63.332ZM60.1816 65.8223L60.9043 65.131L60.8889 65.115L60.8729 65.0996L60.1816 65.8223ZM63.0137 67.5801L63.3619 66.6426L63.3533 66.6395L63.0137 67.5801ZM70.0938 67.8242L69.8735 66.8488L69.8623 66.8513L69.8512 66.8541L70.0938 67.8242ZM73.0723 66.8477L73.4699 67.7653L73.4813 67.7602L73.0723 66.8477ZM75.8066 65.2852L75.2374 64.4629L75.2311 64.4673L75.8066 65.2852ZM78.0527 63.2832L78.8073 63.9394L79.0527 63.6572V63.2832H78.0527ZM54.9805 37.5996V28.3223H52.9805V37.5996H54.9805ZM54.5745 29.1267C56.6246 27.6128 58.832 26.3671 61.1984 25.389L60.4344 23.5407C57.918 24.5808 55.5681 25.9067 53.3864 27.5178L54.5745 29.1267ZM61.1921 25.3916C63.459 24.4726 66.1103 24 69.166 24V22C65.9066 22 62.9916 22.504 60.4407 23.5381L61.1921 25.3916ZM69.166 24C71.638 24 73.8484 24.2537 75.8046 24.7505L76.2969 22.812C74.1516 22.2672 71.7721 22 69.166 22V24ZM75.8046 24.7505C77.7671 25.2489 79.4159 25.957 80.7695 26.8594L81.8789 25.1953C80.3029 24.1446 78.4361 23.3553 76.2969 22.812L75.8046 24.7505ZM80.7483 26.8448C82.06 27.769 83.0586 28.8897 83.7622 30.2089L85.5269 29.2677C84.668 27.6572 83.453 26.3039 81.9002 25.2099L80.7483 26.8448ZM83.7501 30.1855C84.421 31.5272 84.7676 33.0636 84.7676 34.8164H86.7676C86.7676 32.7931 86.3655 30.9442 85.539 29.2911L83.7501 30.1855ZM84.7676 34.8164V66.5059H86.7676V34.8164H84.7676ZM84.7676 66.5059C84.7676 67.5843 85.1637 68.5586 85.8872 69.4027L87.4057 68.1012C86.9574 67.5781 86.7676 67.0551 86.7676 66.5059H84.7676ZM85.8552 69.3634C86.5066 70.2064 87.3683 70.9085 88.4095 71.483L89.3757 69.7318C88.5289 69.2646 87.8932 68.7298 87.4378 68.1405L85.8552 69.3634ZM88.5037 69.6861L80.9842 72.86L81.7619 74.7025L89.2814 71.5287L88.5037 69.6861ZM81.9217 72.9452C81.0079 72.3455 80.3074 71.5993 79.8032 70.7031L78.0601 71.6836C78.7278 72.8707 79.6548 73.8498 80.8244 74.6173L81.9217 72.9452ZM79.7964 70.6912C79.3044 69.8439 79.0527 68.8958 79.0527 67.8242H77.0527C77.0527 69.2266 77.387 70.5246 78.0668 71.6955L79.7964 70.6912ZM77.3094 67.1553C76.4941 68.0612 75.5387 68.8663 74.4382 69.5694L75.515 71.2548C76.7582 70.4605 77.8535 69.5404 78.796 68.4932L77.3094 67.1553ZM74.4486 69.5628C73.3025 70.2753 72.0948 70.8637 70.8244 71.3285L71.5116 73.2067C72.9104 72.6949 74.2417 72.0464 75.5045 71.2614L74.4486 69.5628ZM70.8044 71.336C69.5238 71.8358 68.195 72.2267 66.8172 72.5086L67.218 74.468C68.7048 74.1639 70.1429 73.7411 71.5315 73.1992L70.8044 71.336ZM66.8425 72.5037C65.4333 72.7543 64.0433 72.8789 62.6719 72.8789V74.8789C64.1651 74.8789 65.6722 74.7431 67.1926 74.4728L66.8425 72.5037ZM62.6719 72.8789C61.0145 72.8789 59.4248 72.6336 57.8985 72.1452L57.289 74.0501C59.0179 74.6033 60.8136 74.8789 62.6719 74.8789V72.8789ZM57.9156 72.1509C56.4045 71.6371 55.087 70.8864 53.9526 69.9012L52.6412 71.4113C53.9807 72.5746 55.5278 73.4514 57.2719 74.0444L57.9156 72.1509ZM53.9428 69.8929C52.7892 68.9167 51.8845 67.7181 51.2274 66.2845L49.4093 67.1178C50.1845 68.8092 51.2655 70.2473 52.6509 71.4196L53.9428 69.8929ZM51.2202 66.2691C50.5469 64.864 50.1953 63.2097 50.1953 61.2812H48.1953C48.1953 63.4544 48.5924 65.4133 49.4165 67.1333L51.2202 66.2691ZM50.1953 61.2812C50.1953 59.5294 50.5417 57.9343 51.2236 56.4815L49.4131 55.6317C48.5976 57.3691 48.1953 59.257 48.1953 61.2812H50.1953ZM51.2202 56.4888C51.8999 55.0702 52.9633 53.71 54.4437 52.4147L53.1266 50.9095C51.482 52.3486 50.2342 53.9181 49.4165 55.6245L51.2202 56.4888ZM54.4437 52.4147C55.9209 51.1221 57.8407 49.8989 60.2237 48.755L59.3583 46.952C56.8585 48.1519 54.7744 49.4678 53.1266 50.9095L54.4437 52.4147ZM60.2285 48.7528C62.5851 47.6063 65.4042 46.4997 68.6926 45.4358L68.0769 43.5329C64.7247 44.6175 61.8147 45.757 59.3535 46.9543L60.2285 48.7528ZM68.701 45.4331L73.6815 43.7729L73.049 41.8755L68.0685 43.5357L68.701 45.4331ZM73.6912 43.7696C74.6876 43.426 75.6213 43.0116 76.4906 42.5248L75.5134 40.7798C74.755 41.2045 73.9309 41.5714 73.0392 41.8788L73.6912 43.7696ZM76.4906 42.5248C77.3601 42.0379 78.1136 41.5034 78.7381 40.9157L77.3674 39.4593C76.8851 39.9132 76.2714 40.3553 75.5134 40.7798L76.4906 42.5248ZM79.0527 40.1875V34.5234H77.0527V40.1875H79.0527ZM79.0527 34.5234C79.0527 33.0781 78.8062 31.7821 78.2697 30.6707L76.4686 31.5402C76.8435 32.3168 77.0527 33.2995 77.0527 34.5234H79.0527ZM78.2574 30.646C77.7013 29.571 76.9493 28.6823 76.0003 27.999L74.8317 29.6221C75.5103 30.1107 76.0604 30.7519 76.4809 31.5649L78.2574 30.646ZM75.9852 27.9884C75.0383 27.3328 73.9729 26.8478 72.7983 26.5274L72.272 28.457C73.2458 28.7225 74.101 29.1164 74.8468 29.6327L75.9852 27.9884ZM72.7642 26.5188C71.5781 26.2397 70.3454 26.1016 69.0684 26.1016V28.1016C70.2002 28.1016 71.2787 28.2239 72.3061 28.4656L72.7642 26.5188ZM69.0684 26.1016C67.4823 26.1016 65.9183 26.384 64.3809 26.943L65.0644 28.8226C66.3916 28.34 67.7247 28.1016 69.0684 28.1016V26.1016ZM64.3809 26.943C62.8605 27.4959 61.4286 28.2555 60.0867 29.2189L61.2531 30.8436C62.4503 29.9841 63.7202 29.3114 65.0644 28.8226L64.3809 26.943ZM60.0732 29.2288C58.7393 30.2207 57.512 31.3807 56.3909 32.7056L57.9177 33.9975C58.945 32.7834 60.0615 31.7298 61.2666 30.8337L60.0732 29.2288ZM56.3829 32.7152C55.2551 34.0822 54.3148 35.5696 53.5631 37.1757L55.3744 38.0235C56.055 36.5697 56.905 35.2251 57.9257 33.9879L56.3829 32.7152ZM54.4688 36.5996H53.9805V38.5996H54.4688V36.5996ZM77.7152 44.4708L68.0472 47.9376L68.7223 49.8202L78.3903 46.3534L77.7152 44.4708ZM68.0544 47.935C66.7052 48.4073 65.3904 48.9804 64.1104 49.6541L65.0419 51.424C66.2359 50.7956 67.4602 50.262 68.7151 49.8228L68.0544 47.935ZM64.1021 49.6586C62.7568 50.383 61.5584 51.25 60.512 52.2615L61.9021 53.6995C62.8088 52.8229 63.8565 52.0624 65.0503 51.4195L64.1021 49.6586ZM60.512 52.2615C59.4527 53.2855 58.6018 54.4547 57.964 55.7657L59.7625 56.6406C60.2966 55.5427 61.0083 54.5634 61.9021 53.6995L60.512 52.2615ZM57.9595 55.775C57.3018 57.1636 56.9844 58.7128 56.9844 60.4023H58.9844C58.9844 58.9669 59.2529 57.7166 59.767 56.6312L57.9595 55.775ZM56.9844 60.4023C56.9844 61.5611 57.184 62.6625 57.5907 63.6977L59.4522 62.9664C59.1428 62.1787 58.9844 61.3269 58.9844 60.4023H56.9844ZM57.5865 63.6867C57.9988 64.7737 58.637 65.7286 59.4904 66.5449L60.8729 65.0996C60.2289 64.4837 59.7603 63.7784 59.4565 62.9774L57.5865 63.6867ZM59.459 66.5135C60.3013 67.3941 61.386 68.0555 62.674 68.5206L63.3533 66.6395C62.2976 66.2583 61.4942 65.7478 60.9043 65.131L59.459 66.5135ZM62.6655 68.5175C63.943 68.992 65.4174 69.2148 67.0664 69.2148V67.2148C65.5904 67.2148 64.363 67.0145 63.3619 66.6427L62.6655 68.5175ZM67.0664 69.2148C68.1324 69.2148 69.2231 69.0727 70.3363 68.7944L69.8512 66.8541C68.8811 67.0966 67.9536 67.2148 67.0664 67.2148V69.2148ZM70.314 68.7997C71.3856 68.5577 72.4378 68.2125 73.4699 67.7652L72.6747 65.9301C71.7536 66.3292 70.8201 66.635 69.8735 66.8488L70.314 68.7997ZM73.4813 67.7602C74.4859 67.3098 75.4529 66.7568 76.3821 66.103L75.2311 64.4673C74.4025 65.0504 73.5466 65.5391 72.6632 65.9352L73.4813 67.7602ZM76.3758 66.1073C77.2881 65.4758 78.0996 64.7532 78.8073 63.9394L77.2981 62.627C76.7038 63.3106 76.0179 63.9226 75.2374 64.463L76.3758 66.1073ZM79.0527 63.2832V45.4121H77.0527V63.2832H79.0527ZM149.576 47.6094H150.576V47.5317L150.564 47.455L149.576 47.6094ZM147.477 58.6445L146.561 58.2427L146.559 58.2461L147.477 58.6445ZM134.635 71.6816L134.26 70.7546L134.25 70.7586L134.635 71.6816ZM120.963 72.9023L121.133 71.9169L121.13 71.9164L120.963 72.9023ZM115.494 71.5352L115.816 70.5883L115.805 70.5847L115.794 70.5813L115.494 71.5352ZM110.611 69.582L111.059 68.6876L111.051 68.6837L111.043 68.6799L110.611 69.582ZM106.705 67.2871H105.705V67.793L106.113 68.0928L106.705 67.2871ZM106.119 4.83594L106.951 4.28124L106.941 4.26564L106.93 4.25045L106.119 4.83594ZM104.508 3.51758L104.3 2.53949L101.311 3.17565L104.097 4.4295L104.508 3.51758ZM114.371 1.41797H115.371V0.182692L114.163 0.439884L114.371 1.41797ZM114.371 29.2012H113.371V31.2602L114.989 29.9871L114.371 29.2012ZM136.832 24.4648L137.214 23.5407L137.207 23.5376L137.199 23.5347L136.832 24.4648ZM147.867 36.6719L148.855 36.5175L148.84 36.4194L148.806 36.3262L147.867 36.6719ZM141.178 48.1953L142.17 48.3221L142.178 48.2589V48.1953H141.178ZM140.006 39.5527L140.959 39.2516L140.958 39.248L140.006 39.5527ZM131.803 29.7871L132.199 28.8688L132.192 28.8659L132.185 28.8631L131.803 29.7871ZM114.371 34.1816L113.617 33.5251L113.371 33.8074V34.1816H114.371ZM114.371 64.0156H113.371V64.3351L113.556 64.5954L114.371 64.0156ZM119.107 68.2148L119.618 67.3548L119.609 67.3497L119.6 67.3448L119.107 68.2148ZM132.145 68.3125L131.655 67.4404L131.643 67.4471L132.145 68.3125ZM140.055 56.9844L141.018 57.2544L141.037 57.1838L141.047 57.1111L140.055 56.9844ZM148.576 47.6094C148.576 51.6644 147.895 55.2016 146.561 58.2427L148.392 59.0463C149.857 55.7073 150.576 51.8877 150.576 47.6094H148.576ZM146.559 58.2461C145.204 61.3666 143.466 63.9576 141.355 66.0377L142.758 67.4623C145.074 65.1805 146.95 62.3678 148.394 59.0429L146.559 58.2461ZM141.355 66.0377C139.23 68.1313 136.866 69.6999 134.26 70.7547L135.01 72.6086C137.873 71.4499 140.456 69.7306 142.758 67.4623L141.355 66.0377ZM134.25 70.7586C131.623 71.8534 129.067 72.3906 126.578 72.3906V74.3906C129.362 74.3906 132.178 73.7886 135.019 72.6047L134.25 70.7586ZM126.578 72.3906C124.781 72.3906 122.967 72.233 121.133 71.9169L120.793 73.8878C122.735 74.2227 124.664 74.3906 126.578 74.3906V72.3906ZM121.13 71.9164C119.258 71.5992 117.487 71.156 115.816 70.5883L115.173 72.482C116.952 73.0862 118.826 73.5545 120.796 73.8883L121.13 71.9164ZM115.794 70.5813C114.082 70.0422 112.504 69.4104 111.059 68.6876L110.164 70.4765C111.713 71.251 113.391 71.9213 115.194 72.489L115.794 70.5813ZM111.043 68.6799C109.591 67.9854 108.345 67.2514 107.297 66.4815L106.113 68.0928C107.279 68.9504 108.637 69.7464 110.18 70.4842L111.043 68.6799ZM107.705 67.2871V7.42383H105.705V67.2871H107.705ZM107.705 7.42383C107.705 6.19808 107.5 5.10433 106.951 4.28124L105.287 5.39064C105.52 5.73942 105.705 6.37093 105.705 7.42383H107.705ZM106.93 4.25045C106.405 3.52437 105.731 2.97143 104.918 2.60566L104.097 4.4295C104.587 4.64966 104.986 4.97563 105.308 5.42143L106.93 4.25045ZM104.716 4.49566L114.579 2.39605L114.163 0.439884L104.3 2.53949L104.716 4.49566ZM113.371 1.41797V29.2012H115.371V1.41797H113.371ZM114.989 29.9871C117.374 28.1115 119.776 26.6438 122.197 25.5749L121.389 23.7454C118.797 24.8901 116.251 26.4497 113.753 28.4152L114.989 29.9871ZM122.197 25.5749C124.594 24.5167 126.914 24 129.166 24V22C126.6 22 124.005 22.5901 121.389 23.7454L122.197 25.5749ZM129.166 24C131.676 24 134.107 24.4642 136.465 25.395L137.199 23.5347C134.609 22.5124 131.93 22 129.166 22V24ZM136.45 25.389C138.753 26.3411 140.801 27.7701 142.596 29.689L144.056 28.3227C142.075 26.2051 139.793 24.6069 137.214 23.5407L136.45 25.389ZM142.596 29.689C144.377 31.5929 145.827 34.0267 146.929 37.0176L148.806 36.3262C147.629 33.1321 146.051 30.4553 144.056 28.3227L142.596 29.689ZM146.879 36.8263L148.588 47.7638L150.564 47.455L148.855 36.5175L146.879 36.8263ZM142.178 48.1953C142.178 44.8313 141.778 41.845 140.959 39.2516L139.052 39.8539C139.796 42.2084 140.178 44.9838 140.178 48.1953H142.178ZM140.958 39.248C140.144 36.7033 138.995 34.5441 137.493 32.7972L135.976 34.1013C137.273 35.6096 138.305 37.5194 139.053 39.8575L140.958 39.248ZM137.493 32.7972C135.998 31.0597 134.232 29.7454 132.199 28.8688L131.407 30.7054C133.149 31.4565 134.671 32.5835 135.976 34.1013L137.493 32.7972ZM132.185 28.8631C130.168 28.0284 128.002 27.6152 125.699 27.6152V29.6152C127.758 29.6152 129.662 29.9834 131.42 30.7111L132.185 28.8631ZM125.699 27.6152C123.423 27.6152 121.236 28.142 119.148 29.1856L120.043 30.9745C121.862 30.0651 123.744 29.6152 125.699 29.6152V27.6152ZM119.148 29.1856C117.071 30.2245 115.227 31.6754 113.617 33.5251L115.125 34.8382C116.575 33.1723 118.214 31.8888 120.043 30.9745L119.148 29.1856ZM113.371 34.1816V64.0156H115.371V34.1816H113.371ZM113.556 64.5954C114.852 66.4166 116.545 67.9119 118.614 69.0849L119.6 67.3448C117.764 66.3042 116.299 65.0001 115.186 63.4359L113.556 64.5954ZM118.597 69.0749C120.703 70.3244 123.216 70.9238 126.09 70.9238V68.9238C123.495 68.9238 121.353 68.384 119.618 67.3548L118.597 69.0749ZM126.09 70.9238C128.444 70.9238 130.635 70.3419 132.646 69.1779L131.643 67.4471C129.943 68.4316 128.098 68.9238 126.09 68.9238V70.9238ZM132.634 69.1845C134.634 68.0617 136.339 66.4721 137.751 64.4398L136.109 63.2985C134.852 65.1073 133.366 66.48 131.655 67.4405L132.634 69.1845ZM137.751 64.4398C139.16 62.4124 140.244 60.0117 141.018 57.2544L139.092 56.7143C138.368 59.2956 137.369 61.4847 136.109 63.2985L137.751 64.4398ZM141.047 57.1111L142.17 48.3221L140.186 48.0686L139.063 56.8576L141.047 57.1111ZM164.752 73L164.175 72.183L161.601 74H164.752V73ZM166.07 71.4863L165.185 71.0206L166.07 71.4863ZM165.973 4.78711L166.805 4.23241L166.787 4.20542L166.767 4.17966L165.973 4.78711ZM164.361 3.51758L164.154 2.53928L161.16 3.17352L163.951 4.4295L164.361 3.51758ZM174.273 1.41797H175.273V0.183958L174.066 0.439675L174.273 1.41797ZM174.762 71.4863L173.877 71.9521L174.762 71.4863ZM176.08 73V74H179.231L176.657 72.183L176.08 73ZM165.329 73.817C166.015 73.3323 166.559 72.7057 166.955 71.9521L165.185 71.0206C164.931 71.5039 164.595 71.8865 164.175 72.183L165.329 73.817ZM166.955 71.9521C167.358 71.1863 167.559 70.3587 167.559 69.4844H165.559C165.559 70.0424 165.433 70.5493 165.185 71.0206L166.955 71.9521ZM167.559 69.4844V7.42383H165.559V69.4844H167.559ZM167.559 7.42383C167.559 6.17242 167.356 5.05899 166.805 4.23241L165.141 5.34181C165.371 5.6871 165.559 6.33148 165.559 7.42383H167.559ZM166.767 4.17966C166.241 3.49115 165.57 2.96494 164.772 2.60566L163.951 4.4295C164.455 4.65615 164.858 4.9763 165.178 5.39456L166.767 4.17966ZM164.569 4.49587L174.481 2.39626L174.066 0.439675L164.154 2.53928L164.569 4.49587ZM173.273 1.41797V69.4844H175.273V1.41797H173.273ZM173.273 69.4844C173.273 70.3587 173.474 71.1863 173.877 71.9521L175.647 71.0206C175.399 70.5493 175.273 70.0424 175.273 69.4844H173.273ZM173.877 71.9521C174.273 72.7057 174.817 73.3323 175.503 73.817L176.657 72.183C176.237 71.8865 175.901 71.5039 175.647 71.0206L173.877 71.9521ZM176.08 72H164.752V74H176.08V72ZM237.594 48.0977H238.594V48.0098L238.578 47.9233L237.594 48.0977ZM205.709 72.1699L206.152 71.2734L206.148 71.2714L205.709 72.1699ZM198.434 66.5547L199.191 65.9013L199.186 65.8955L198.434 66.5547ZM193.502 58.2539L192.568 58.6103L193.502 58.2539ZM198.434 29.543L199.186 30.2022L199.191 30.1963L198.434 29.543ZM205.709 23.9277L206.148 24.8263L206.152 24.8243L205.709 23.9277ZM235.787 37.8926L236.772 37.7183L236.756 37.6265L236.723 37.5394L235.787 37.8926ZM228.365 48.0977L229.36 48.1983L229.365 48.1481V48.0977H228.365ZM227.486 39.3574L228.464 39.1479L228.462 39.1368L227.486 39.3574ZM224.801 32.1797L225.669 31.6835L225.666 31.6776L224.801 32.1797ZM220.504 27.3457L221.084 26.5309L221.075 26.5246L221.066 26.5185L220.504 27.3457ZM208.736 27.3457L208.167 26.5235L208.164 26.5257L208.736 27.3457ZM204.439 32.1797L205.308 32.6758L205.31 32.6713L204.439 32.1797ZM201.803 39.3574L202.778 39.5781L202.781 39.567L201.803 39.3574ZM201.803 56.7891L202.781 56.5795L202.778 56.5659L201.803 56.7891ZM204.439 63.918L205.31 63.4263L205.304 63.4158L204.439 63.918ZM208.736 68.7031L209.316 67.8883L209.307 67.882L209.298 67.8759L208.736 68.7031ZM220.504 68.7031L219.935 67.8809L219.931 67.8832L220.504 68.7031ZM227.486 56.7891L228.462 57.0097L228.475 56.9503L228.481 56.8897L227.486 56.7891ZM236.594 48.0977C236.594 51.5976 236.011 54.8614 234.853 57.8975L236.721 58.6103C237.972 55.3313 238.594 51.8243 238.594 48.0977H236.594ZM234.853 57.8975C233.688 60.9518 232.103 63.6145 230.104 65.8955L231.607 67.2139C233.774 64.7423 235.478 61.8711 236.721 58.6103L234.853 57.8975ZM230.104 65.8955C228.106 68.1735 225.771 69.9632 223.092 71.2714L223.97 73.0685C226.891 71.6422 229.438 69.6885 231.607 67.2139L230.104 65.8955ZM223.092 71.2714C220.431 72.5709 217.603 73.2207 214.596 73.2207V75.2207C217.903 75.2207 221.032 74.5033 223.97 73.0685L223.092 71.2714ZM214.596 73.2207C211.588 73.2207 208.778 72.5709 206.152 71.2734L205.266 73.0665C208.174 74.5033 211.288 75.2207 214.596 75.2207V73.2207ZM206.148 71.2714C203.471 69.964 201.154 68.176 199.191 65.9013L197.677 67.208C199.815 69.686 202.348 71.6415 205.27 73.0685L206.148 71.2714ZM199.186 65.8955C197.186 63.6145 195.601 60.9518 194.436 57.8975L192.568 58.6103C193.811 61.8711 195.515 64.7423 197.682 67.2139L199.186 65.8955ZM194.436 57.8975C193.278 54.8614 192.695 51.5976 192.695 48.0977H190.695C190.695 51.8243 191.317 55.3313 192.568 58.6103L194.436 57.8975ZM192.695 48.0977C192.695 44.5978 193.278 41.3164 194.438 38.2458L192.566 37.5394C191.317 40.849 190.695 44.371 190.695 48.0977H192.695ZM194.438 38.2458C195.603 35.159 197.187 32.4814 199.186 30.2022L197.682 28.8837C195.513 31.3571 193.81 34.246 192.566 37.5394L194.438 38.2458ZM199.191 30.1963C201.154 27.9216 203.471 26.1337 206.148 24.8263L205.27 23.0292C202.348 24.4562 199.815 26.4117 197.677 28.8896L199.191 30.1963ZM206.152 24.8243C208.778 23.5267 211.588 22.877 214.596 22.877V20.877C211.288 20.877 208.174 21.5943 205.266 23.0312L206.152 24.8243ZM214.596 22.877C217.603 22.877 220.431 23.5268 223.092 24.8263L223.97 23.0292C221.032 21.5943 217.903 20.877 214.596 20.877V22.877ZM223.092 24.8263C225.771 26.1344 228.106 27.9242 230.104 30.2022L231.607 28.8837C229.438 26.4091 226.891 24.4554 223.97 23.0292L223.092 24.8263ZM230.104 30.2022C232.102 32.4814 233.686 35.159 234.852 38.2458L236.723 37.5394C235.479 34.246 233.776 31.3571 231.607 28.8837L230.104 30.2022ZM234.802 38.0669L236.609 48.272L238.578 47.9233L236.772 37.7183L234.802 38.0669ZM229.365 48.0977C229.365 44.9421 229.066 41.9579 228.464 39.1479L226.509 39.567C227.078 42.2257 227.365 45.0683 227.365 48.0977H229.365ZM228.462 39.1368C227.825 36.3233 226.898 33.8347 225.669 31.6835L223.933 32.6758C225.047 34.6263 225.91 36.9228 226.511 39.578L228.462 39.1368ZM225.666 31.6776C224.431 29.5512 222.906 27.8277 221.084 26.5309L219.924 28.1605C221.487 29.2726 222.827 30.7717 223.936 32.6818L225.666 31.6776ZM221.066 26.5185C219.164 25.227 216.997 24.5879 214.596 24.5879V26.5879C216.622 26.5879 218.393 27.1207 219.942 28.1729L221.066 26.5185ZM214.596 24.5879C212.195 24.5879 210.04 25.227 208.167 26.5235L209.306 28.1679C210.818 27.1206 212.569 26.5879 214.596 26.5879V24.5879ZM208.164 26.5257C206.304 27.8243 204.774 29.5528 203.569 31.6881L205.31 32.6713C206.384 30.7701 207.718 29.276 209.309 28.1657L208.164 26.5257ZM203.571 31.6835C202.34 33.8383 201.429 36.3309 200.825 39.1479L202.781 39.567C203.349 36.9152 204.195 34.6226 205.308 32.6758L203.571 31.6835ZM200.827 39.1368C200.191 41.9506 199.875 44.9385 199.875 48.0977H201.875C201.875 45.0719 202.178 42.233 202.778 39.578L200.827 39.1368ZM199.875 48.0977C199.875 51.2567 200.191 54.2293 200.828 57.0122L202.778 56.5659C202.178 53.9452 201.875 51.1235 201.875 48.0977H199.875ZM200.825 56.9986C201.429 59.8161 202.341 62.2949 203.575 64.4201L205.304 63.4158C204.194 61.5046 203.349 59.2308 202.781 56.5795L200.825 56.9986ZM203.569 64.4096C204.775 66.5469 206.308 68.2626 208.174 69.5303L209.298 67.8759C207.714 66.7999 206.382 65.3255 205.31 63.4264L203.569 64.4096ZM208.157 69.5179C210.03 70.8509 212.189 71.5098 214.596 71.5098V69.5098C212.576 69.5098 210.828 68.9642 209.316 67.8883L208.157 69.5179ZM214.596 71.5098C217.003 71.5098 219.174 70.851 221.076 69.5231L219.931 67.8832C218.383 68.9641 216.616 69.5098 214.596 69.5098V71.5098ZM221.073 69.5253C222.902 68.2593 224.43 66.5484 225.666 64.4201L223.936 63.4158C222.828 65.324 221.491 66.8032 219.935 67.8809L221.073 69.5253ZM225.666 64.4201C226.897 62.2986 227.825 59.8237 228.462 57.0097L226.511 56.5684C225.91 59.2232 225.048 61.5009 223.936 63.4158L225.666 64.4201ZM228.481 56.8897L229.36 48.1983L227.37 47.997L226.491 56.6885L228.481 56.8897ZM284.508 73L283.931 72.183L281.357 74H284.508V73ZM285.826 71.4863L284.941 71.0206L285.826 71.4863ZM285.484 32.7656L286.405 32.3745L286.401 32.366L285.484 32.7656ZM283.238 29.6406L282.585 30.398L283.238 29.6406ZM280.016 27.834L280.324 26.8828L280.309 26.8778L280.294 26.8734L280.016 27.834ZM269.127 28.9082L269.553 29.8127L269.558 29.8103L269.127 28.9082ZM263.121 33.4004L262.377 32.7321L262.121 33.0172V33.4004H263.121ZM263.609 71.4863L262.724 71.9521L263.609 71.4863ZM264.928 73V74H268.078L265.504 72.183L264.928 73ZM253.6 73L253.023 72.183L250.449 74H253.6V73ZM254.918 71.4863L254.033 71.0206L254.918 71.4863ZM254.82 26.4668L255.666 25.9328L255.656 25.9173L255.646 25.9021L254.82 26.4668ZM253.209 25.0996L253.002 24.1213L250.008 24.7556L252.799 26.0115L253.209 25.0996ZM263.121 23H264.121V21.766L262.914 22.0217L263.121 23ZM263.121 29.4941H262.121V32.0051L263.847 30.1816L263.121 29.4941ZM270.885 23.9766L271.281 24.8946L271.285 24.893L270.885 23.9766ZM284.898 22.9023L284.614 23.8611L284.898 22.9023ZM289.586 25.3926L290.235 24.632L290.226 24.6244L289.586 25.3926ZM292.809 29.7871L293.722 29.3794L293.719 29.3733L292.809 29.7871ZM295.836 73V74H298.987L296.413 72.183L295.836 73ZM285.085 73.817C285.771 73.3323 286.314 72.7057 286.711 71.9521L284.941 71.0206C284.687 71.5039 284.351 71.8865 283.931 72.183L285.085 73.817ZM286.711 71.9521C287.114 71.1863 287.314 70.3587 287.314 69.4844H285.314C285.314 70.0424 285.189 70.5493 284.941 71.0206L286.711 71.9521ZM287.314 69.4844V37.4043H285.314V69.4844H287.314ZM287.314 37.4043C287.314 35.5139 287.023 33.8284 286.405 32.3745L284.564 33.1568C285.053 34.307 285.314 35.714 285.314 37.4043H287.314ZM286.401 32.366C285.794 30.9744 284.961 29.8054 283.891 28.8832L282.585 30.398C283.404 31.1034 284.068 32.0178 284.568 33.1652L286.401 32.366ZM283.891 28.8832C282.845 27.9811 281.653 27.3138 280.324 26.8828L279.707 28.7852C280.787 29.1355 281.744 29.6725 282.585 30.398L283.891 28.8832ZM280.294 26.8734C278.961 26.4876 277.565 26.2969 276.109 26.2969V28.2969C277.388 28.2969 278.596 28.4642 279.738 28.7945L280.294 26.8734ZM276.109 26.2969C273.546 26.2969 271.072 26.8697 268.695 28.0061L269.558 29.8103C271.674 28.7983 273.855 28.2969 276.109 28.2969V26.2969ZM268.701 28.0037C266.298 29.1361 264.189 30.715 262.377 32.7321L263.865 34.0687C265.504 32.2447 267.398 30.8287 269.553 29.8127L268.701 28.0037ZM262.121 33.4004V69.4844H264.121V33.4004H262.121ZM262.121 69.4844C262.121 70.3587 262.321 71.1863 262.724 71.9521L264.494 71.0206C264.246 70.5493 264.121 70.0424 264.121 69.4844H262.121ZM262.724 71.9521C263.121 72.7057 263.664 73.3323 264.351 73.817L265.504 72.183C265.084 71.8865 264.749 71.5039 264.494 71.0206L262.724 71.9521ZM264.928 72H253.6V74H264.928V72ZM254.176 73.817C254.863 73.3323 255.406 72.7057 255.803 71.9521L254.033 71.0206C253.779 71.5039 253.443 71.8865 253.023 72.183L254.176 73.817ZM255.803 71.9521C256.206 71.1863 256.406 70.3587 256.406 69.4844H254.406C254.406 70.0424 254.281 70.5493 254.033 71.0206L255.803 71.9521ZM256.406 69.4844V29.1035H254.406V69.4844H256.406ZM256.406 29.1035C256.406 27.8721 256.199 26.7769 255.666 25.9328L253.975 27.0008C254.223 27.3936 254.406 28.0563 254.406 29.1035H256.406ZM255.646 25.9021C255.124 25.1398 254.446 24.5599 253.619 24.1877L252.799 26.0115C253.274 26.2253 253.67 26.5568 253.995 27.0315L255.646 25.9021ZM253.416 26.0779L263.328 23.9783L262.914 22.0217L253.002 24.1213L253.416 26.0779ZM262.121 23V29.4941H264.121V23H262.121ZM263.847 30.1816C266.073 27.8309 268.55 26.0738 271.281 24.8946L270.488 23.0585C267.49 24.3533 264.792 26.2746 262.395 28.8067L263.847 30.1816ZM271.285 24.893C274.001 23.7067 276.713 23.1211 279.43 23.1211V21.1211C276.417 21.1211 273.433 21.7724 270.484 23.0602L271.285 24.893ZM279.43 23.1211C281.224 23.1211 282.951 23.3684 284.614 23.8611L285.183 21.9435C283.33 21.3946 281.411 21.1211 279.43 21.1211V23.1211ZM284.614 23.8611C286.246 24.3445 287.686 25.1112 288.946 26.1608L290.226 24.6244C288.751 23.3953 287.067 22.5018 285.183 21.9435L284.614 23.8611ZM288.937 26.1531C290.147 27.1865 291.138 28.5277 291.898 30.2009L293.719 29.3733C292.852 27.4658 291.694 25.8773 290.235 24.632L288.937 26.1531ZM291.895 30.1948C292.638 31.8581 293.029 33.9089 293.029 36.3789H295.029C295.029 33.7057 294.607 31.3619 293.722 29.3795L291.895 30.1948ZM293.029 36.3789V69.4844H295.029V36.3789H293.029ZM293.029 69.4844C293.029 70.3587 293.23 71.1863 293.633 71.9521L295.402 71.0206C295.154 70.5493 295.029 70.0424 295.029 69.4844H293.029ZM293.633 71.9521C294.029 72.7057 294.573 73.3323 295.259 73.817L296.413 72.183C295.992 71.8865 295.657 71.5039 295.402 71.0206L293.633 71.9521ZM295.836 72H284.508V74H295.836V72ZM320.777 68.8008H321.777V68.7018L321.758 68.6047L320.777 68.8008ZM319.312 72.3164L318.632 71.5836L318.63 71.5854L319.312 72.3164ZM313.795 73.3906L314.201 72.4768L314.192 72.4728L314.183 72.469L313.795 73.3906ZM312.184 72.3164L312.891 71.6093L312.865 71.5841L312.839 71.5607L312.184 72.3164ZM311.061 66.8477L310.139 66.4596L311.061 66.8477ZM312.184 65.1875L312.891 65.8946L312.184 65.1875ZM313.795 64.1133L314.183 65.0349L314.192 65.0311L314.201 65.0271L313.795 64.1133ZM319.312 65.1875L320.044 64.5052L320.02 64.48L319.995 64.4564L319.312 65.1875ZM320.387 66.8477L321.367 66.6515L321.348 66.5526L321.308 66.4596L320.387 66.8477ZM319.777 68.8008C319.777 69.3536 319.673 69.8725 319.465 70.3659L321.308 71.142C321.621 70.3983 321.777 69.6151 321.777 68.8008H319.777ZM319.465 70.3659C319.255 70.8641 318.976 71.2644 318.632 71.5836L319.993 73.0492C320.561 72.5221 320.997 71.8807 321.308 71.142L319.465 70.3659ZM318.63 71.5854C318.228 71.9603 317.775 72.2541 317.264 72.469L318.04 74.3123C318.767 74.0064 319.42 73.5839 319.995 73.0475L318.63 71.5854ZM317.264 72.469C316.771 72.6767 316.252 72.7812 315.699 72.7812V74.7812C316.514 74.7812 317.297 74.6254 318.04 74.3123L317.264 72.469ZM315.699 72.7812C315.146 72.7812 314.651 72.6767 314.201 72.4768L313.389 74.3044C314.111 74.6254 314.885 74.7812 315.699 74.7812V72.7812ZM314.183 72.469C313.679 72.2567 313.251 71.9698 312.891 71.6093L311.477 73.0235C312.027 73.5745 312.674 74.0038 313.407 74.3123L314.183 72.469ZM312.839 71.5607C312.471 71.2419 312.185 70.8486 311.982 70.3659L310.139 71.142C310.456 71.8962 310.92 72.5445 311.529 73.0721L312.839 71.5607ZM311.982 70.3659C311.774 69.8725 311.67 69.3536 311.67 68.8008H309.67C309.67 69.6151 309.826 70.3983 310.139 71.142L311.982 70.3659ZM311.67 68.8008C311.67 68.2479 311.774 67.729 311.982 67.2357L310.139 66.4596C309.826 67.2033 309.67 67.9865 309.67 68.8008H311.67ZM311.982 67.2357C312.191 66.7399 312.491 66.2941 312.891 65.8946L311.477 64.4804C310.899 65.0574 310.451 65.7184 310.139 66.4596L311.982 67.2357ZM312.891 65.8946C313.251 65.5341 313.679 65.2472 314.183 65.0349L313.407 63.1916C312.674 63.5002 312.027 63.9294 311.477 64.4804L312.891 65.8946ZM314.201 65.0271C314.651 64.8272 315.146 64.7227 315.699 64.7227V62.7227C314.885 62.7227 314.111 62.8785 313.389 63.1995L314.201 65.0271ZM315.699 64.7227C316.252 64.7227 316.771 64.8272 317.264 65.0349L318.04 63.1916C317.297 62.8785 316.514 62.7227 315.699 62.7227V64.7227ZM317.264 65.0349C317.775 65.2499 318.228 65.5436 318.63 65.9186L319.995 64.4564C319.42 63.92 318.767 63.4975 318.04 63.1916L317.264 65.0349ZM318.581 65.8698C318.956 66.2716 319.25 66.7252 319.465 67.2357L321.308 66.4596C321.002 65.7331 320.58 65.08 320.044 64.5052L318.581 65.8698ZM319.406 67.0438L319.797 68.9969L321.758 68.6047L321.367 66.6515L319.406 67.0438ZM347.965 6.39844H348.965V6.20838L348.895 6.03157L347.965 6.39844ZM347.623 8.20508L348.537 8.61122L348.542 8.5986L348.548 8.58583L347.623 8.20508ZM346.598 9.71875L347.305 10.4259L346.598 9.71875ZM345.084 10.793L345.49 11.7068L345.5 11.7024L345.51 11.6978L345.084 10.793ZM341.275 10.793L341.682 9.87916L341.673 9.87516L341.663 9.87133L341.275 10.793ZM339.713 9.71875L340.446 9.0383L340.42 9.01116L340.393 8.98596L339.713 9.71875ZM338.639 8.20508L339.552 7.79894L339.548 7.78906L339.543 7.77928L338.639 8.20508ZM339.713 2.93164L340.42 3.63875L339.713 2.93164ZM341.275 1.90625L341.663 2.82789L341.673 2.82406L341.682 2.82006L341.275 1.90625ZM346.598 2.93164L347.528 2.56477L347.455 2.37996L347.317 2.23705L346.598 2.93164ZM338.346 73L337.769 72.183L335.195 74H338.346V73ZM339.664 71.4863L338.779 71.0206L339.664 71.4863ZM339.566 26.4668L340.412 25.9328L340.402 25.9173L340.392 25.9021L339.566 26.4668ZM337.955 25.0996L337.748 24.1213L334.754 24.7556L337.545 26.0115L337.955 25.0996ZM347.867 23H348.867V21.766L347.66 22.0217L347.867 23ZM348.355 71.4863L347.471 71.9521L348.355 71.4863ZM349.674 73V74H352.825L350.251 72.183L349.674 73ZM346.965 6.39844C346.965 6.93041 346.872 7.40196 346.698 7.82433L348.548 8.58583C348.83 7.90142 348.965 7.16854 348.965 6.39844H346.965ZM346.709 7.79894C346.495 8.28079 346.221 8.68129 345.891 9.01164L347.305 10.4259C347.821 9.90986 348.23 9.30124 348.537 8.61122L346.709 7.79894ZM345.891 9.01164C345.512 9.39015 345.102 9.6795 344.658 9.88815L345.51 11.6978C346.173 11.3856 346.772 10.9588 347.305 10.4259L345.891 9.01164ZM344.678 9.87916C344.228 10.079 343.733 10.1836 343.18 10.1836V12.1836C343.994 12.1836 344.768 12.0277 345.49 11.7068L344.678 9.87916ZM343.18 10.1836C342.627 10.1836 342.131 10.079 341.682 9.87916L340.869 11.7068C341.591 12.0277 342.366 12.1836 343.18 12.1836V10.1836ZM341.663 9.87133C341.165 9.66154 340.765 9.38207 340.446 9.0383L338.98 10.3992C339.507 10.9669 340.149 11.4036 340.887 11.7146L341.663 9.87133ZM340.393 8.98596C340.04 8.65765 339.76 8.26526 339.552 7.79894L337.725 8.61122C338.038 9.31677 338.475 9.9335 339.032 10.4515L340.393 8.98596ZM339.543 7.77928C339.35 7.36759 339.248 6.91196 339.248 6.39844H337.248C337.248 7.187 337.407 7.9358 337.734 8.63087L339.543 7.77928ZM339.248 6.39844C339.248 5.84536 339.353 5.35003 339.552 4.90028L337.725 4.088C337.404 4.81012 337.248 5.58433 337.248 6.39844H339.248ZM339.552 4.90028C339.763 4.42709 340.051 4.00815 340.42 3.63875L339.006 2.22453C338.464 2.76659 338.035 3.38932 337.725 4.088L339.552 4.90028ZM340.42 3.63875C340.741 3.3175 341.15 3.04418 341.663 2.82789L340.887 0.984614C340.164 1.28916 339.531 1.69943 339.006 2.22453L340.42 3.63875ZM341.682 2.82006C342.131 2.62017 342.627 2.51562 343.18 2.51562V0.515625C342.366 0.515625 341.591 0.671496 340.869 0.992438L341.682 2.82006ZM343.18 2.51562C344.288 2.51562 345.164 2.88638 345.878 3.62624L347.317 2.23705C346.208 1.08888 344.805 0.515625 343.18 0.515625V2.51562ZM345.667 3.29851L347.035 6.76531L348.895 6.03157L347.528 2.56477L345.667 3.29851ZM338.922 73.817C339.609 73.3323 340.152 72.7057 340.549 71.9521L338.779 71.0206C338.525 71.5039 338.189 71.8865 337.769 72.183L338.922 73.817ZM340.549 71.9521C340.952 71.1863 341.152 70.3587 341.152 69.4844H339.152C339.152 70.0424 339.027 70.5493 338.779 71.0206L340.549 71.9521ZM341.152 69.4844V29.1035H339.152V69.4844H341.152ZM341.152 29.1035C341.152 27.8721 340.945 26.7769 340.412 25.9328L338.721 27.0008C338.969 27.3936 339.152 28.0563 339.152 29.1035H341.152ZM340.392 25.9021C339.87 25.1398 339.193 24.5599 338.365 24.1877L337.545 26.0115C338.02 26.2253 338.416 26.5568 338.741 27.0315L340.392 25.9021ZM338.162 26.0779L348.074 23.9783L347.66 22.0217L337.748 24.1213L338.162 26.0779ZM346.867 23V69.4844H348.867V23H346.867ZM346.867 69.4844C346.867 70.3587 347.068 71.1863 347.471 71.9521L349.24 71.0206C348.992 70.5493 348.867 70.0424 348.867 69.4844H346.867ZM347.471 71.9521C347.867 72.7057 348.411 73.3323 349.097 73.817L350.251 72.183C349.83 71.8865 349.495 71.5039 349.24 71.0206L347.471 71.9521ZM349.674 72H338.346V74H349.674V72ZM395.758 73L395.181 72.183L392.607 74H395.758V73ZM397.076 71.4863L396.191 71.0206L397.076 71.4863ZM396.734 32.7656L397.655 32.3745L397.651 32.366L396.734 32.7656ZM394.488 29.6406L393.835 30.398L394.488 29.6406ZM391.266 27.834L391.574 26.8828L391.559 26.8778L391.544 26.8734L391.266 27.834ZM380.377 28.9082L380.803 29.8127L380.808 29.8103L380.377 28.9082ZM374.371 33.4004L373.627 32.7321L373.371 33.0172V33.4004H374.371ZM374.859 71.4863L373.974 71.9521L374.859 71.4863ZM376.178 73V74H379.328L376.754 72.183L376.178 73ZM364.85 73L364.273 72.183L361.699 74H364.85V73ZM366.168 71.4863L365.283 71.0206L366.168 71.4863ZM366.07 26.4668L366.916 25.9328L366.906 25.9173L366.896 25.9021L366.07 26.4668ZM364.459 25.0996L364.252 24.1213L361.258 24.7556L364.049 26.0115L364.459 25.0996ZM374.371 23H375.371V21.766L374.164 22.0217L374.371 23ZM374.371 29.4941H373.371V32.0051L375.097 30.1816L374.371 29.4941ZM382.135 23.9766L382.531 24.8946L382.535 24.893L382.135 23.9766ZM396.148 22.9023L395.864 23.8611L396.148 22.9023ZM400.836 25.3926L401.485 24.632L401.476 24.6244L400.836 25.3926ZM404.059 29.7871L404.972 29.3794L404.969 29.3733L404.059 29.7871ZM407.086 73V74H410.237L407.663 72.183L407.086 73ZM396.335 73.817C397.021 73.3323 397.564 72.7057 397.961 71.9521L396.191 71.0206C395.937 71.5039 395.601 71.8865 395.181 72.183L396.335 73.817ZM397.961 71.9521C398.364 71.1863 398.564 70.3587 398.564 69.4844H396.564C396.564 70.0424 396.439 70.5493 396.191 71.0206L397.961 71.9521ZM398.564 69.4844V37.4043H396.564V69.4844H398.564ZM398.564 37.4043C398.564 35.5139 398.273 33.8284 397.655 32.3745L395.814 33.1568C396.303 34.307 396.564 35.714 396.564 37.4043H398.564ZM397.651 32.366C397.044 30.9744 396.211 29.8054 395.141 28.8832L393.835 30.398C394.654 31.1034 395.318 32.0178 395.818 33.1652L397.651 32.366ZM395.141 28.8832C394.095 27.9811 392.903 27.3138 391.574 26.8828L390.957 28.7852C392.037 29.1355 392.994 29.6725 393.835 30.398L395.141 28.8832ZM391.544 26.8734C390.211 26.4876 388.815 26.2969 387.359 26.2969V28.2969C388.638 28.2969 389.846 28.4642 390.988 28.7945L391.544 26.8734ZM387.359 26.2969C384.796 26.2969 382.322 26.8697 379.945 28.0061L380.808 29.8103C382.924 28.7983 385.105 28.2969 387.359 28.2969V26.2969ZM379.951 28.0037C377.548 29.1361 375.439 30.715 373.627 32.7321L375.115 34.0687C376.754 32.2447 378.648 30.8287 380.803 29.8127L379.951 28.0037ZM373.371 33.4004V69.4844H375.371V33.4004H373.371ZM373.371 69.4844C373.371 70.3587 373.571 71.1863 373.974 71.9521L375.744 71.0206C375.496 70.5493 375.371 70.0424 375.371 69.4844H373.371ZM373.974 71.9521C374.371 72.7057 374.914 73.3323 375.601 73.817L376.754 72.183C376.334 71.8865 375.999 71.5039 375.744 71.0206L373.974 71.9521ZM376.178 72H364.85V74H376.178V72ZM365.426 73.817C366.113 73.3323 366.656 72.7057 367.053 71.9521L365.283 71.0206C365.029 71.5039 364.693 71.8865 364.273 72.183L365.426 73.817ZM367.053 71.9521C367.456 71.1863 367.656 70.3587 367.656 69.4844H365.656C365.656 70.0424 365.531 70.5493 365.283 71.0206L367.053 71.9521ZM367.656 69.4844V29.1035H365.656V69.4844H367.656ZM367.656 29.1035C367.656 27.8721 367.449 26.7769 366.916 25.9328L365.225 27.0008C365.473 27.3936 365.656 28.0563 365.656 29.1035H367.656ZM366.896 25.9021C366.374 25.1398 365.696 24.5599 364.869 24.1877L364.049 26.0115C364.524 26.2253 364.92 26.5568 365.245 27.0315L366.896 25.9021ZM364.666 26.0779L374.578 23.9783L374.164 22.0217L364.252 24.1213L364.666 26.0779ZM373.371 23V29.4941H375.371V23H373.371ZM375.097 30.1816C377.323 27.8309 379.8 26.0738 382.531 24.8946L381.738 23.0585C378.74 24.3533 376.042 26.2746 373.645 28.8067L375.097 30.1816ZM382.535 24.893C385.251 23.7067 387.963 23.1211 390.68 23.1211V21.1211C387.667 21.1211 384.683 21.7724 381.734 23.0602L382.535 24.893ZM390.68 23.1211C392.474 23.1211 394.201 23.3684 395.864 23.8611L396.433 21.9435C394.58 21.3946 392.661 21.1211 390.68 21.1211V23.1211ZM395.864 23.8611C397.496 24.3445 398.936 25.1112 400.196 26.1608L401.476 24.6244C400.001 23.3953 398.317 22.5018 396.433 21.9435L395.864 23.8611ZM400.187 26.1531C401.397 27.1865 402.388 28.5277 403.148 30.2009L404.969 29.3733C404.102 27.4658 402.944 25.8773 401.485 24.632L400.187 26.1531ZM403.145 30.1948C403.888 31.8581 404.279 33.9089 404.279 36.3789H406.279C406.279 33.7057 405.857 31.3619 404.972 29.3795L403.145 30.1948ZM404.279 36.3789V69.4844H406.279V36.3789H404.279ZM404.279 69.4844C404.279 70.3587 404.48 71.1863 404.883 71.9521L406.652 71.0206C406.404 70.5493 406.279 70.0424 406.279 69.4844H404.279ZM404.883 71.9521C405.279 72.7057 405.823 73.3323 406.509 73.817L407.663 72.183C407.242 71.8865 406.907 71.5039 406.652 71.0206L404.883 71.9521ZM407.086 72H395.758V74H407.086V72Z" fill="#AA8768"/>
</svg>
