<svg width="283" height="142" viewBox="0 0 283 142" fill="none" xmlns="http://www.w3.org/2000/svg">
<path d="M68.65 68.4375C68.65 74.4375 67.6422 79.7344 65.6266 84.3281C63.6109 88.9688 61.0094 92.8594 57.8219 96C54.6344 99.1406 51.0719 101.508 47.1344 103.102C43.1969 104.742 39.3297 105.562 35.5328 105.562C32.8609 105.562 30.1656 105.328 27.4469 104.859C24.6812 104.391 22.0562 103.734 19.5719 102.891C17.0406 102.094 14.6969 101.156 12.5406 100.078C10.3844 99.0469 8.50937 97.9453 6.91562 96.7734V10.5703C6.91562 8.92969 6.63437 7.6875 6.07187 6.84375C5.46249 6 4.68906 5.36719 3.75156 4.94531L17.9547 1.92188V41.9297C21.4703 39.1641 25.0328 36.9844 28.6422 35.3906C32.2516 33.7969 35.7906 33 39.2594 33C43.0562 33 46.7359 33.7031 50.2984 35.1094C53.8141 36.5625 56.9312 38.7422 59.65 41.6484C62.3687 44.5547 64.5484 48.2344 66.1891 52.6875L68.65 68.4375ZM56.5562 69.2812C56.5562 64.5469 55.9937 60.3984 54.8687 56.8359C53.7437 53.3203 52.1734 50.3906 50.1578 48.0469C48.1422 45.7031 45.775 43.9453 43.0562 42.7734C40.3375 41.6484 37.4078 41.0859 34.2672 41.0859C31.2203 41.0859 28.2906 41.7891 25.4781 43.1953C22.6656 44.6016 20.1578 46.5703 17.9547 49.1016V92.0625C19.6891 94.5 21.9625 96.5156 24.775 98.1094C27.5406 99.75 30.8922 100.57 34.8297 100.57C37.9703 100.57 40.8766 99.7969 43.5484 98.25C46.2203 96.75 48.5172 94.6172 50.4391 91.8516C52.3609 89.0859 53.8609 85.7812 54.9391 81.9375L56.5562 69.2812ZM90.5031 105C91.3 104.438 91.9328 103.711 92.4016 102.82C92.8703 101.93 93.1047 100.969 93.1047 99.9375V10.5703C93.1047 8.88281 92.8234 7.61719 92.2609 6.77344C91.6516 5.97656 90.8781 5.36719 89.9406 4.94531L104.214 1.92188V99.9375C104.214 100.969 104.448 101.93 104.917 102.82C105.386 103.711 106.019 104.438 106.816 105H90.5031ZM195.395 69.1406C195.395 74.3438 194.528 79.2188 192.794 83.7656C191.059 88.3125 188.692 92.2969 185.692 95.7188C182.692 99.1406 179.177 101.836 175.145 103.805C171.114 105.773 166.825 106.758 162.278 106.758C157.731 106.758 153.466 105.773 149.481 103.805C145.45 101.836 141.958 99.1406 139.005 95.7188C136.005 92.2969 133.637 88.3125 131.903 83.7656C130.169 79.2188 129.302 74.3438 129.302 69.1406C129.302 63.9375 130.169 59.0391 131.903 54.4453C133.637 49.8516 136.005 45.8438 139.005 42.4219C141.958 39 145.45 36.3047 149.481 34.3359C153.466 32.3672 157.731 31.3828 162.278 31.3828C166.825 31.3828 171.114 32.3672 175.145 34.3359C179.177 36.3047 182.692 39 185.692 42.4219C188.692 45.8438 191.059 49.8516 192.794 54.4453L195.395 69.1406ZM182.106 69.1406C182.106 64.6875 181.684 60.4922 180.841 56.5547C179.95 52.6172 178.661 49.1719 176.973 46.2188C175.286 43.3125 173.223 40.9922 170.786 39.2578C168.302 37.5703 165.466 36.7266 162.278 36.7266C159.091 36.7266 156.278 37.5703 153.841 39.2578C151.356 40.9922 149.294 43.3125 147.653 46.2188C145.966 49.1719 144.7 52.6172 143.856 56.5547C142.966 60.4922 142.52 64.6875 142.52 69.1406C142.52 73.5938 142.966 77.7656 143.856 81.6562C144.7 85.5938 145.966 89.0156 147.653 91.9219C149.294 94.8281 151.356 97.125 153.841 98.8125C156.278 100.547 159.091 101.414 162.278 101.414C165.466 101.414 168.302 100.547 170.786 98.8125C173.223 97.125 175.286 94.8281 176.973 91.9219C178.661 89.0156 179.95 85.5938 180.841 81.6562L182.106 69.1406ZM281.373 41.0859H268.998C271.248 43.5234 273.03 46.2891 274.342 49.3828C275.608 52.4766 276.241 55.8047 276.241 59.3672C276.241 63.0703 275.537 66.5625 274.131 69.8438C272.678 73.125 270.709 75.9844 268.225 78.4219C265.741 80.8594 262.834 82.7812 259.506 84.1875C256.178 85.5938 252.616 86.2969 248.819 86.2969C246.334 86.2969 244.037 85.9922 241.928 85.3828C239.819 86.0391 238.084 87 236.725 88.2656C235.319 89.5312 234.616 90.8438 234.616 92.2031C234.616 93.6562 235.295 94.9219 236.655 96C238.014 97.125 239.772 97.6875 241.928 97.6875H253.178C257.772 97.6875 261.803 97.875 265.272 98.25C268.741 98.6719 271.623 99.4688 273.92 100.641C276.217 101.859 277.952 103.57 279.123 105.773C280.248 107.977 280.811 110.883 280.811 114.492C280.811 117.164 280.248 119.672 279.123 122.016C277.998 124.359 276.498 126.516 274.623 128.484C272.748 130.453 270.592 132.211 268.155 133.758C265.67 135.305 263.092 136.617 260.42 137.695C257.702 138.773 254.983 139.594 252.264 140.156C249.545 140.719 246.967 141 244.53 141C240.873 141 237.428 140.508 234.194 139.523C230.959 138.492 228.147 137.109 225.756 135.375C223.319 133.641 221.397 131.625 219.991 129.328C218.584 126.984 217.881 124.5 217.881 121.875C217.881 118.5 218.959 115.453 221.116 112.734C223.225 109.969 226.037 107.719 229.553 105.984C227.959 105.047 226.694 103.898 225.756 102.539C224.819 101.18 224.35 99.6094 224.35 97.8281C224.35 96.375 224.725 94.9219 225.475 93.4688C226.178 92.0625 227.139 90.7266 228.358 89.4609C229.577 88.2422 230.983 87.1406 232.577 86.1562C234.17 85.1719 235.858 84.3984 237.639 83.8359C235.248 82.8047 233.069 81.4453 231.1 79.7578C229.131 78.1172 227.444 76.2188 226.037 74.0625C224.584 71.9531 223.459 69.6328 222.662 67.1016C221.866 64.6172 221.467 62.0391 221.467 59.3672C221.467 55.6641 222.194 52.1719 223.647 48.8906C225.053 45.6094 226.998 42.75 229.483 40.3125C231.967 37.875 234.873 35.9531 238.202 34.5469C241.483 33.1406 245.022 32.4375 248.819 32.4375C252.897 32.4375 256.694 33.2578 260.209 34.8984H281.373V41.0859ZM263.655 59.3672C263.655 56.3672 263.35 53.5078 262.741 50.7891C262.131 48.1172 261.217 45.7734 259.998 43.7578C258.733 41.7891 257.186 40.2188 255.358 39.0469C253.483 37.875 251.303 37.2891 248.819 37.2891C246.334 37.2891 244.178 37.875 242.35 39.0469C240.475 40.2188 238.928 41.7891 237.709 43.7578C236.491 45.7734 235.577 48.1172 234.967 50.7891C234.358 53.5078 234.053 56.3672 234.053 59.3672C234.053 62.4141 234.358 65.25 234.967 67.875C235.577 70.5469 236.491 72.8672 237.709 74.8359C238.928 76.8047 240.475 78.3516 242.35 79.4766C244.178 80.6484 246.334 81.2344 248.819 81.2344C251.303 81.2344 253.483 80.6484 255.358 79.4766C257.186 78.3516 258.733 76.8047 259.998 74.8359C261.217 72.8672 262.131 70.5469 262.741 67.875L263.655 59.3672ZM272.866 118.359C272.866 116.625 272.444 115.102 271.6 113.789C270.756 112.43 269.397 111.305 267.522 110.414C265.647 109.477 263.209 108.773 260.209 108.305C257.209 107.836 253.577 107.602 249.311 107.602C244.998 107.602 241.389 107.812 238.483 108.234C235.53 108.656 233.162 109.312 231.381 110.203C229.553 111.047 228.241 112.102 227.444 113.367C226.647 114.633 226.248 116.109 226.248 117.797C226.248 119.812 226.905 121.781 228.217 123.703C229.53 125.578 231.311 127.242 233.561 128.695C235.811 130.148 238.483 131.32 241.577 132.211C244.623 133.102 247.905 133.547 251.42 133.547C254.936 133.547 258.03 133.102 260.702 132.211C263.373 131.32 265.623 130.172 267.452 128.766C269.233 127.312 270.592 125.672 271.53 123.844L272.866 118.359Z" fill="white"/>
<path d="M68.65 68.4375H69.65V68.3598L69.638 68.2831L68.65 68.4375ZM65.6266 84.3281L64.7108 83.9263L64.7093 83.9297L65.6266 84.3281ZM47.1344 103.102L46.7592 102.175L46.7498 102.178L47.1344 103.102ZM27.4469 104.859L27.6168 103.874L27.614 103.873L27.4469 104.859ZM19.5719 102.891L19.8935 101.944L19.8828 101.94L19.8722 101.937L19.5719 102.891ZM12.5406 100.078L12.9878 99.1837L12.98 99.1798L12.9721 99.176L12.5406 100.078ZM6.91562 96.7734H5.91562V97.2794L6.32323 97.5791L6.91562 96.7734ZM6.07187 6.84375L6.90392 6.28905L6.89352 6.27345L6.88255 6.25826L6.07187 6.84375ZM3.75156 4.94531L3.54335 3.96723L0.55487 4.60339L3.34119 5.85723L3.75156 4.94531ZM17.9547 1.92188H18.9547V0.686598L17.7465 0.94379L17.9547 1.92188ZM17.9547 41.9297H16.9547V43.9887L18.573 42.7156L17.9547 41.9297ZM50.2984 35.1094L50.6804 34.1852L50.673 34.1822L50.6656 34.1792L50.2984 35.1094ZM66.1891 52.6875L67.1771 52.5331L67.1617 52.435L67.1274 52.3418L66.1891 52.6875ZM56.5562 69.2812L57.5482 69.408L57.5562 69.3449V69.2812H56.5562ZM54.8687 56.8359L55.8223 56.5348L55.8212 56.5312L54.8687 56.8359ZM43.0562 42.7734L43.4521 41.8551L43.4454 41.8522L43.4386 41.8494L43.0562 42.7734ZM17.9547 49.1016L17.2004 48.445L16.9547 48.7273V49.1016H17.9547ZM17.9547 92.0625H16.9547V92.382L17.1399 92.6423L17.9547 92.0625ZM24.775 98.1094L25.2852 97.2493L25.2767 97.2442L25.268 97.2393L24.775 98.1094ZM43.5484 98.25L43.0589 97.3779L43.0474 97.3846L43.5484 98.25ZM54.9391 81.9375L55.9019 82.2076L55.9217 82.137L55.931 82.0642L54.9391 81.9375ZM67.65 68.4375C67.65 74.3258 66.6611 79.4816 64.7108 83.9263L66.5423 84.7299C68.6233 79.9872 69.65 74.5492 69.65 68.4375H67.65ZM64.7093 83.9297C62.7381 88.4682 60.2051 92.2479 57.12 95.2877L58.5237 96.7123C61.8136 93.4708 64.4838 89.4693 66.5438 84.7265L64.7093 83.9297ZM57.12 95.2877C54.0211 98.341 50.5683 100.633 46.7592 102.175L47.5096 104.029C51.5755 102.383 55.2476 99.9403 58.5237 96.7123L57.12 95.2877ZM46.7498 102.178C42.9191 103.775 39.1823 104.562 35.5328 104.562V106.562C39.4771 106.562 43.4746 105.71 47.519 104.025L46.7498 102.178ZM35.5328 104.562C32.9197 104.562 30.2812 104.333 27.6168 103.874L27.277 105.845C30.05 106.323 32.8022 106.562 35.5328 106.562V104.562ZM27.614 103.873C24.8972 103.413 22.3241 102.769 19.8935 101.944L19.2503 103.838C21.7884 104.699 24.4653 105.368 27.2798 105.845L27.614 103.873ZM19.8722 101.937C17.3864 101.154 15.0923 100.236 12.9878 99.1837L12.0934 100.973C14.3014 102.077 16.6948 103.033 19.2716 103.844L19.8722 101.937ZM12.9721 99.176C10.8611 98.1664 9.04212 97.0958 7.50801 95.9678L6.32323 97.5791C7.97662 98.7948 9.90761 99.9273 12.1092 100.98L12.9721 99.176ZM7.91562 96.7734V10.5703H5.91562V96.7734H7.91562ZM7.91562 10.5703C7.91562 8.84327 7.62452 7.36995 6.90392 6.28905L5.23982 7.39845C5.64422 8.00505 5.91562 9.01611 5.91562 10.5703H7.91562ZM6.88255 6.25826C6.17196 5.27437 5.26121 4.52807 4.16192 4.03339L3.34119 5.85723C4.1169 6.2063 4.75303 6.72563 5.26119 7.42924L6.88255 6.25826ZM3.95976 5.9234L18.1629 2.89996L17.7465 0.94379L3.54335 3.96723L3.95976 5.9234ZM16.9547 1.92188V41.9297H18.9547V1.92188H16.9547ZM18.573 42.7156C22.0314 39.995 25.5227 37.8612 29.0461 36.3054L28.2382 34.4758C24.5429 36.1075 20.9092 38.3331 17.3364 41.1437L18.573 42.7156ZM29.0461 36.3054C32.5457 34.7601 35.9476 34 39.2594 34V32C35.6336 32 31.9574 32.8336 28.2382 34.4758L29.0461 36.3054ZM39.2594 34C42.9294 34 46.4846 34.679 49.9313 36.0395L50.6656 34.1792C46.9872 32.7272 43.1831 32 39.2594 32V34ZM49.9164 36.0335C53.294 37.4296 56.2939 39.5247 58.9197 42.3316L60.3803 40.9653C57.5686 37.9597 54.3341 35.6954 50.6804 34.1852L49.9164 36.0335ZM58.9197 42.3316C61.5315 45.1235 63.6475 48.6817 65.2507 53.0332L67.1274 52.3418C65.4493 47.7871 63.206 43.9859 60.3803 40.9653L58.9197 42.3316ZM65.201 52.8419L67.662 68.5919L69.638 68.2831L67.1771 52.5331L65.201 52.8419ZM57.5562 69.2812C57.5562 64.4707 56.985 60.2167 55.8223 56.5348L53.9152 57.1371C55.0025 60.5802 55.5562 64.6231 55.5562 69.2812H57.5562ZM55.8212 56.5312C54.6631 52.9122 53.0342 49.8579 50.916 47.3948L49.3996 48.6989C51.3127 50.9234 52.8244 53.7284 53.9163 57.1407L55.8212 56.5312ZM50.916 47.3948C48.8059 44.9412 46.3165 43.0898 43.4521 41.8551L42.6604 43.6918C45.2335 44.8009 47.4785 46.4651 49.3996 48.6989L50.916 47.3948ZM43.4386 41.8494C40.5906 40.6709 37.5301 40.0859 34.2672 40.0859V42.0859C37.2856 42.0859 40.0844 42.6259 42.6739 43.6975L43.4386 41.8494ZM34.2672 40.0859C31.06 40.0859 27.9777 40.8275 25.0309 42.3009L25.9253 44.0897C28.6036 42.7506 31.3806 42.0859 34.2672 42.0859V40.0859ZM25.0309 42.3009C22.0938 43.7694 19.4835 45.8219 17.2004 48.445L18.709 49.7581C20.8321 47.3187 23.2375 45.4337 25.9253 44.0897L25.0309 42.3009ZM16.9547 49.1016V92.0625H18.9547V49.1016H16.9547ZM17.1399 92.6423C18.9657 95.2083 21.3527 97.3195 24.282 98.9794L25.268 97.2393C22.5723 95.7118 20.4124 93.7917 18.7695 91.4827L17.1399 92.6423ZM24.2648 98.9694C27.2161 100.72 30.7528 101.57 34.8297 101.57V99.5703C31.0315 99.5703 27.8652 98.7798 25.2852 97.2493L24.2648 98.9694ZM34.8297 101.57C38.1431 101.57 41.2226 100.752 44.0495 99.1154L43.0474 97.3846C40.5305 98.8417 37.7976 99.5703 34.8297 99.5703V101.57ZM44.038 99.122C46.8544 97.5408 49.2607 95.2996 51.2602 92.4222L49.6179 91.2809C47.7737 93.9348 45.5862 95.9592 43.0589 97.378L44.038 99.122ZM51.2602 92.4222C53.2563 89.5498 54.7991 86.1393 55.9019 82.2076L53.9762 81.6674C52.9228 85.4232 51.4655 88.6221 49.6179 91.2809L51.2602 92.4222ZM55.931 82.0642L57.5482 69.408L55.5643 69.1545L53.9471 81.8108L55.931 82.0642ZM90.5031 105L89.9264 104.183L87.3524 106H90.5031V105ZM92.2609 6.77344L93.093 6.21874L93.075 6.19175L93.0553 6.16599L92.2609 6.77344ZM89.9406 4.94531L89.7334 3.96702L86.7392 4.60126L89.5303 5.85723L89.9406 4.94531ZM104.214 1.92188H105.214V0.687864L104.007 0.943582L104.214 1.92188ZM106.816 105V106H109.966L107.392 104.183L106.816 105ZM91.0798 105.817C92.0099 105.16 92.7466 104.312 93.2865 103.286L91.5166 102.355C91.119 103.11 90.5901 103.715 89.9264 104.183L91.0798 105.817ZM93.2865 103.286C93.8327 102.248 94.1047 101.127 94.1047 99.9375H92.1047C92.1047 100.811 91.9079 101.611 91.5166 102.355L93.2865 103.286ZM94.1047 99.9375V10.5703H92.1047V99.9375H94.1047ZM94.1047 10.5703C94.1047 8.80328 93.8159 7.30313 93.093 6.21874L91.4289 7.32814C91.8309 7.93124 92.1047 8.96234 92.1047 10.5703H94.1047ZM93.0553 6.16599C92.3426 5.23398 91.4359 4.52158 90.351 4.03339L89.5303 5.85723C90.3204 6.2128 90.9605 6.71914 91.4666 7.38089L93.0553 6.16599ZM90.1478 5.9236L104.421 2.90017L104.007 0.943582L89.7334 3.96702L90.1478 5.9236ZM103.214 1.92188V99.9375H105.214V1.92188H103.214ZM103.214 99.9375C103.214 101.127 103.486 102.248 104.032 103.286L105.802 102.355C105.411 101.611 105.214 100.811 105.214 99.9375H103.214ZM104.032 103.286C104.572 104.312 105.309 105.16 106.239 105.817L107.392 104.183C106.729 103.715 106.2 103.11 105.802 102.355L104.032 103.286ZM106.816 104H90.5031V106H106.816V104ZM195.395 69.1406H196.395V69.0528L196.38 68.9663L195.395 69.1406ZM149.481 103.805L149.924 102.908L149.92 102.906L149.481 103.805ZM139.005 95.7188L139.762 95.0654L139.757 95.0595L139.005 95.7188ZM139.005 42.4219L139.757 43.0811L139.762 43.0752L139.005 42.4219ZM149.481 34.3359L149.92 35.2345L149.924 35.2325L149.481 34.3359ZM192.794 54.4453L193.778 54.271L193.762 54.1793L193.729 54.0921L192.794 54.4453ZM182.106 69.1406L183.101 69.2412L183.106 69.1911V69.1406H182.106ZM180.841 56.5547L181.818 56.3451L181.816 56.3341L180.841 56.5547ZM176.973 46.2188L177.842 45.7226L177.838 45.7166L176.973 46.2188ZM170.786 39.2578L171.366 38.443L171.357 38.4367L171.348 38.4306L170.786 39.2578ZM153.841 39.2578L153.271 38.4356L153.268 38.4379L153.841 39.2578ZM147.653 46.2188L148.521 46.7149L148.524 46.7103L147.653 46.2188ZM143.856 56.5547L144.832 56.7753L144.834 56.7642L143.856 56.5547ZM143.856 81.6562L144.834 81.4467L144.831 81.4331L143.856 81.6562ZM147.653 91.9219L148.524 91.4302L148.518 91.4197L147.653 91.9219ZM153.841 98.8125L154.42 97.9977L154.412 97.9914L154.403 97.9853L153.841 98.8125ZM170.786 98.8125L170.217 97.9903L170.214 97.9925L170.786 98.8125ZM180.841 81.6562L181.816 81.8769L181.829 81.8175L181.836 81.7569L180.841 81.6562ZM194.395 69.1406C194.395 74.2304 193.547 78.9838 191.859 83.4092L193.728 84.122C195.509 79.4537 196.395 74.4571 196.395 69.1406H194.395ZM191.859 83.4092C190.164 87.8529 187.857 91.733 184.94 95.0595L186.444 96.378C189.528 92.8608 191.954 88.7721 193.728 84.122L191.859 83.4092ZM184.94 95.0595C182.026 98.3831 178.617 100.996 174.706 102.906L175.584 104.703C179.736 102.675 183.358 99.8981 186.444 96.378L184.94 95.0595ZM174.706 102.906C170.814 104.807 166.675 105.758 162.278 105.758V107.758C166.975 107.758 171.414 106.74 175.584 104.703L174.706 102.906ZM162.278 105.758C157.881 105.758 153.768 104.807 149.924 102.908L149.038 104.701C153.164 106.74 157.581 107.758 162.278 107.758V105.758ZM149.92 102.906C146.011 100.997 142.627 98.3856 139.762 95.0654L138.248 96.3721C141.288 99.8956 144.889 102.675 149.042 104.703L149.92 102.906ZM139.757 95.0595C136.84 91.733 134.532 87.8529 132.837 83.4092L130.969 84.122C132.743 88.7721 135.169 92.8608 138.253 96.378L139.757 95.0595ZM132.837 83.4092C131.149 78.9838 130.302 74.2304 130.302 69.1406H128.302C128.302 74.4571 129.188 79.4537 130.969 84.122L132.837 83.4092ZM130.302 69.1406C130.302 64.0509 131.149 59.2728 132.839 54.7985L130.968 54.0921C129.188 58.8053 128.302 63.8241 128.302 69.1406H130.302ZM132.839 54.7985C134.534 50.3081 136.842 46.4059 139.757 43.0811L138.253 41.7626C135.168 45.2816 132.741 49.3951 130.968 54.0921L132.839 54.7985ZM139.762 43.0752C142.627 39.755 146.011 37.1434 149.92 35.2345L149.042 33.4374C144.889 35.466 141.288 38.245 138.248 41.7685L139.762 43.0752ZM149.924 35.2325C153.768 33.3334 157.881 32.3828 162.278 32.3828V30.3828C157.581 30.3828 153.164 31.401 149.038 33.4394L149.924 35.2325ZM162.278 32.3828C166.675 32.3828 170.814 33.3334 174.706 35.2345L175.584 33.4374C171.414 31.401 166.975 30.3828 162.278 30.3828V32.3828ZM174.706 35.2345C178.617 37.1442 182.026 39.7575 184.94 43.0811L186.444 41.7626C183.358 38.2425 179.736 35.4652 175.584 33.4374L174.706 35.2345ZM184.94 43.0811C187.855 46.4059 190.163 50.3081 191.858 54.7985L193.729 54.0921C191.956 49.3951 189.529 45.2816 186.444 41.7626L184.94 43.0811ZM191.809 54.6196L194.411 69.3149L196.38 68.9663L193.778 54.271L191.809 54.6196ZM183.106 69.1406C183.106 64.6244 182.678 60.3583 181.818 56.3452L179.863 56.7642C180.69 60.626 181.106 64.7506 181.106 69.1406H183.106ZM181.816 56.3341C180.907 52.3174 179.587 48.7761 177.842 45.7226L176.105 46.7149C177.735 49.5677 178.993 52.9169 179.865 56.7753L181.816 56.3341ZM177.838 45.7166C176.088 42.7023 173.933 40.2697 171.366 38.443L170.206 40.0726C172.514 41.7146 174.484 43.9227 176.109 46.7209L177.838 45.7166ZM171.348 38.4306C168.687 36.6234 165.653 35.7266 162.278 35.7266V37.7266C165.278 37.7266 167.916 38.5172 170.224 40.085L171.348 38.4306ZM162.278 35.7266C158.903 35.7266 155.889 36.6235 153.271 38.4356L154.41 40.08C156.667 38.5171 159.278 37.7266 162.278 37.7266V35.7266ZM153.268 38.4379C150.649 40.2663 148.489 42.7039 146.782 45.7272L148.524 46.7103C150.099 43.9211 152.063 41.718 154.413 40.0778L153.268 38.4379ZM146.785 45.7226C145.038 48.7797 143.74 52.325 142.878 56.3452L144.834 56.7642C145.66 52.9093 146.893 49.564 148.521 46.7149L146.785 45.7226ZM142.881 56.3341C141.972 60.351 141.52 64.6208 141.52 69.1406H143.52C143.52 64.7542 143.959 60.6334 144.832 56.7753L142.881 56.3341ZM141.52 69.1406C141.52 73.6603 141.972 77.9077 142.881 81.8794L144.831 81.4331C143.959 77.6235 143.52 73.5272 143.52 69.1406H141.52ZM142.878 81.8658C143.74 85.8864 145.039 89.4108 146.788 92.424L148.518 91.4197C146.893 88.6204 145.66 85.3011 144.834 81.4467L142.878 81.8658ZM146.782 92.4135C148.49 95.4388 150.653 97.8564 153.279 99.6397L154.403 97.9853C152.059 96.3936 150.097 94.2175 148.524 91.4303L146.782 92.4135ZM153.261 99.6273C155.879 101.49 158.897 102.414 162.278 102.414V100.414C159.284 100.414 156.677 99.6035 154.42 97.9977L153.261 99.6273ZM162.278 102.414C165.659 102.414 168.697 101.49 171.358 99.6325L170.214 97.9925C167.906 99.6034 165.272 100.414 162.278 100.414V102.414ZM171.355 99.6347C173.929 97.853 176.087 95.4403 177.838 92.424L176.109 91.4197C174.485 94.2159 172.518 96.397 170.217 97.9903L171.355 99.6347ZM177.838 92.424C179.586 89.4145 180.907 85.894 181.816 81.8769L179.865 81.4356C178.993 85.2935 177.736 88.6167 176.109 91.4197L177.838 92.424ZM181.836 81.7569L183.101 69.2412L181.111 69.04L179.846 81.5556L181.836 81.7569ZM281.373 41.0859V42.0859H282.373V41.0859H281.373ZM268.998 41.0859V40.0859H266.714L268.264 41.7642L268.998 41.0859ZM274.342 49.3828L275.268 49.0041L275.263 48.9923L274.342 49.3828ZM274.131 69.8438L275.046 70.2487L275.05 70.2377L274.131 69.8438ZM241.928 85.3828L242.206 84.4221L241.917 84.3388L241.631 84.428L241.928 85.3828ZM236.725 88.2656L237.394 89.0089L237.4 89.0033L237.406 88.9975L236.725 88.2656ZM236.655 96L237.292 95.2296L237.284 95.223L237.276 95.2165L236.655 96ZM265.272 98.25L265.393 97.2572L265.379 97.2558L265.272 98.25ZM273.92 100.641L274.389 99.7573L274.382 99.7535L274.375 99.7499L273.92 100.641ZM279.123 105.773L280.014 105.319L280.01 105.311L280.006 105.304L279.123 105.773ZM268.155 133.758L268.683 134.607L268.69 134.602L268.155 133.758ZM260.42 137.695L260.789 138.625L260.794 138.623L260.42 137.695ZM234.194 139.523L233.89 140.476L233.903 140.48L234.194 139.523ZM225.756 135.375L226.343 134.566L226.336 134.56L225.756 135.375ZM219.991 129.328L219.133 129.843L219.138 129.85L219.991 129.328ZM221.116 112.734L221.899 113.356L221.905 113.348L221.911 113.341L221.116 112.734ZM229.553 105.984L229.996 106.881L231.657 106.062L230.06 105.122L229.553 105.984ZM225.475 93.4688L226.364 93.9274L226.369 93.916L225.475 93.4688ZM228.358 89.4609L227.651 88.7538L227.644 88.7605L227.637 88.7673L228.358 89.4609ZM237.639 83.8359L237.94 84.7895L240.5 83.9811L238.035 82.9177L237.639 83.8359ZM231.1 79.7578L231.751 78.9985L231.74 78.9896L231.1 79.7578ZM226.037 74.0625L226.875 73.5162L226.868 73.5056L226.861 73.4952L226.037 74.0625ZM222.662 67.1016L223.616 66.8013L223.615 66.7961L222.662 67.1016ZM223.647 48.8906L224.561 49.2956L224.566 49.2845L223.647 48.8906ZM238.202 34.5469L238.591 35.468L238.595 35.466L238.202 34.5469ZM260.209 34.8984L259.786 35.8046L259.988 35.8984H260.209V34.8984ZM281.373 34.8984H282.373V33.8984H281.373V34.8984ZM263.655 59.3672L264.649 59.474L264.655 59.4208V59.3672H263.655ZM262.741 50.7891L263.716 50.5704L263.716 50.5667L262.741 50.7891ZM259.998 43.7578L260.854 43.2404L260.847 43.2286L260.84 43.2171L259.998 43.7578ZM255.358 39.0469L255.897 38.2049L255.888 38.1989L255.358 39.0469ZM242.35 39.0469L242.88 39.8949L242.89 39.8888L242.35 39.0469ZM237.709 43.7578L236.859 43.2314L236.854 43.2404L237.709 43.7578ZM234.967 50.7891L233.992 50.5667L233.991 50.5704L234.967 50.7891ZM234.967 67.875L235.942 67.6526L235.941 67.6489L234.967 67.875ZM242.35 79.4766L242.89 78.6347L242.877 78.6267L242.864 78.6191L242.35 79.4766ZM255.358 79.4766L254.834 78.6249L254.828 78.6286L255.358 79.4766ZM259.998 74.8359L260.84 75.3767L260.844 75.3695L260.849 75.3623L259.998 74.8359ZM262.741 67.875L263.716 68.0974L263.729 68.0402L263.735 67.9818L262.741 67.875ZM272.866 118.359L273.837 118.596L273.866 118.479V118.359H272.866ZM271.6 113.789L270.75 114.316L270.755 114.323L270.759 114.33L271.6 113.789ZM267.522 110.414L267.075 111.308L267.084 111.313L267.093 111.317L267.522 110.414ZM238.483 108.234L238.624 109.224L238.626 109.224L238.483 108.234ZM231.381 110.203L231.8 111.111L231.814 111.105L231.828 111.098L231.381 110.203ZM228.217 123.703L227.391 124.267L227.398 124.277L228.217 123.703ZM241.577 132.211L241.857 131.251L241.853 131.25L241.577 132.211ZM267.452 128.766L268.061 129.558L268.073 129.55L268.084 129.54L267.452 128.766ZM271.53 123.844L272.419 124.3L272.473 124.195L272.501 124.08L271.53 123.844ZM281.373 40.0859H268.998V42.0859H281.373V40.0859ZM268.264 41.7642C270.435 44.1161 272.153 46.7841 273.422 49.7734L275.263 48.9923C273.906 45.794 272.062 42.9308 269.733 40.4077L268.264 41.7642ZM273.417 49.7614C274.63 52.7273 275.241 55.9259 275.241 59.3672H277.241C277.241 55.6835 276.586 52.2259 275.268 49.0042L273.417 49.7614ZM275.241 59.3672C275.241 62.94 274.563 66.2977 273.212 69.4498L275.05 70.2377C276.512 66.8273 277.241 63.2006 277.241 59.3672H275.241ZM273.217 69.4388C271.813 72.6082 269.916 75.3618 267.525 77.7081L268.925 79.1357C271.503 76.6069 273.543 73.6418 275.046 70.2487L273.217 69.4388ZM267.525 77.7081C265.133 80.0542 262.334 81.9071 259.117 83.2664L259.895 85.1086C263.335 83.6554 266.348 81.6646 268.925 79.1357L267.525 77.7081ZM259.117 83.2664C255.918 84.6179 252.489 85.2969 248.819 85.2969V87.2969C252.742 87.2969 256.438 86.5696 259.895 85.1086L259.117 83.2664ZM248.819 85.2969C246.416 85.2969 244.214 85.0023 242.206 84.4221L241.651 86.3435C243.861 86.9821 246.253 87.2969 248.819 87.2969V85.2969ZM241.631 84.428C239.405 85.1204 237.532 86.1483 236.044 87.5337L237.406 88.9975C238.637 87.8517 240.232 86.9577 242.225 86.3377L241.631 84.428ZM236.056 87.5223C234.524 88.9007 233.616 90.4628 233.616 92.2031H235.616C235.616 91.2247 236.113 90.1618 237.394 89.0089L236.056 87.5223ZM233.616 92.2031C233.616 94.0219 234.486 95.5567 236.033 96.7835L237.276 95.2165C236.104 94.287 235.616 93.2906 235.616 92.2031H233.616ZM236.017 96.7704C237.593 98.0747 239.593 98.6875 241.928 98.6875V96.6875C239.951 96.6875 238.435 96.1753 237.292 95.2296L236.017 96.7704ZM241.928 98.6875H253.178V96.6875H241.928V98.6875ZM253.178 98.6875C257.746 98.6875 261.74 98.8741 265.164 99.2442L265.379 97.2558C261.866 96.8759 257.797 96.6875 253.178 96.6875V98.6875ZM265.151 99.2427C268.542 99.6551 271.303 100.428 273.466 101.531L274.375 99.7499C271.944 98.5095 268.939 97.6886 265.393 97.2573L265.151 99.2427ZM273.452 101.524C275.58 102.653 277.166 104.224 278.241 106.243L280.006 105.304C278.737 102.917 276.854 101.065 274.389 99.7573L273.452 101.524ZM278.233 106.228C279.261 108.241 279.811 110.974 279.811 114.492H281.811C281.811 110.792 281.236 107.712 280.014 105.319L278.233 106.228ZM279.811 114.492C279.811 117.019 279.28 119.378 278.222 121.583L280.025 122.448C281.217 119.966 281.811 117.31 281.811 114.492H279.811ZM278.222 121.583C277.144 123.828 275.705 125.898 273.899 127.795L275.348 129.174C277.291 127.133 278.853 124.891 280.025 122.448L278.222 121.583ZM273.899 127.795C272.084 129.701 269.992 131.408 267.619 132.913L268.69 134.602C271.193 133.014 273.413 131.205 275.348 129.174L273.899 127.795ZM267.626 132.909C265.19 134.426 262.664 135.712 260.046 136.768L260.794 138.623C263.521 137.523 266.151 136.184 268.683 134.607L267.626 132.909ZM260.052 136.766C257.384 137.824 254.721 138.627 252.061 139.177L252.467 141.136C255.245 140.561 258.019 139.723 260.789 138.625L260.052 136.766ZM252.061 139.177C249.4 139.728 246.89 140 244.53 140V142C247.044 142 249.69 141.71 252.467 141.136L252.061 139.177ZM244.53 140C240.964 140 237.618 139.52 234.485 138.567L233.903 140.48C237.239 141.495 240.783 142 244.53 142V140ZM234.498 138.571C231.35 137.567 228.636 136.229 226.343 134.566L225.169 136.184C227.658 137.99 230.569 139.417 233.89 140.476L234.498 138.571ZM226.336 134.56C223.996 132.895 222.172 130.976 220.843 128.806L219.138 129.85C220.622 132.274 222.641 134.386 225.176 136.19L226.336 134.56ZM220.848 128.814C219.531 126.619 218.881 124.311 218.881 121.875H216.881C216.881 124.689 217.638 127.35 219.133 129.843L220.848 128.814ZM218.881 121.875C218.881 118.732 219.879 115.903 221.899 113.356L220.332 112.113C218.04 115.003 216.881 118.268 216.881 121.875H218.881ZM221.911 113.341C223.915 110.713 226.601 108.556 229.996 106.881L229.111 105.088C225.474 106.881 222.535 109.225 220.32 112.128L221.911 113.341ZM230.06 105.122C228.577 104.25 227.425 103.197 226.579 101.971L224.933 103.107C225.963 104.6 227.342 105.844 229.046 106.846L230.06 105.122ZM226.579 101.971C225.766 100.792 225.35 99.4234 225.35 97.8281H223.35C223.35 99.7954 223.871 101.567 224.933 103.107L226.579 101.971ZM225.35 97.8281C225.35 96.5536 225.678 95.2567 226.364 93.9274L224.586 93.0101C223.772 94.5871 223.35 96.1964 223.35 97.8281H225.35ZM226.369 93.916C227.022 92.6101 227.921 91.3558 229.078 90.1546L227.637 88.7673C226.357 90.0973 225.334 91.5149 224.581 93.0215L226.369 93.916ZM229.065 90.168C230.224 89.0086 231.569 87.9542 233.102 87.007L232.051 85.3055C230.397 86.327 228.929 87.4758 227.651 88.7538L229.065 90.168ZM233.102 87.007C234.626 86.0659 236.238 85.3271 237.94 84.7895L237.338 82.8824C235.478 83.4698 233.715 84.2778 232.051 85.3055L233.102 87.007ZM238.035 82.9177C235.737 81.9262 233.643 80.6203 231.751 78.9986L230.449 80.5171C232.495 82.2703 234.76 83.6832 237.243 84.7542L238.035 82.9177ZM231.74 78.9896C229.848 77.413 228.227 75.5895 226.875 73.5162L225.2 74.6088C226.66 76.848 228.414 78.8214 230.46 80.526L231.74 78.9896ZM226.861 73.4952C225.466 71.4708 224.384 69.241 223.616 66.8013L221.709 67.4018C222.534 70.0247 223.702 72.4355 225.214 74.6298L226.861 73.4952ZM223.615 66.7961C222.85 64.4129 222.467 61.9379 222.467 59.3672H220.467C220.467 62.1402 220.881 64.8215 221.71 67.407L223.615 66.7961ZM222.467 59.3672C222.467 55.799 223.166 52.4452 224.561 49.2956L222.733 48.4857C221.221 51.8986 220.467 55.5292 220.467 59.3672H222.467ZM224.566 49.2845C225.922 46.12 227.794 43.3701 230.183 41.0263L228.782 39.5987C226.203 42.1299 224.184 45.0987 222.728 48.4967L224.566 49.2845ZM230.183 41.0263C232.574 38.6802 235.374 36.8272 238.591 35.468L237.812 33.6257C234.373 35.079 231.36 37.0698 228.782 39.5987L230.183 41.0263ZM238.595 35.466C241.744 34.1165 245.149 33.4375 248.819 33.4375V31.4375C244.895 31.4375 241.221 32.1648 237.808 33.6277L238.595 35.466ZM248.819 33.4375C252.758 33.4375 256.41 34.2289 259.786 35.8046L260.632 33.9923C256.977 32.2867 253.035 31.4375 248.819 31.4375V33.4375ZM260.209 35.8984H281.373V33.8984H260.209V35.8984ZM280.373 34.8984V41.0859H282.373V34.8984H280.373ZM264.655 59.3672C264.655 56.2992 264.343 53.3661 263.716 50.5704L261.765 51.0078C262.357 53.6495 262.655 56.4352 262.655 59.3672H264.655ZM263.716 50.5667C263.086 47.8074 262.136 45.3609 260.854 43.2404L259.143 44.2752C260.298 46.186 261.176 48.427 261.766 51.0114L263.716 50.5667ZM260.84 43.2171C259.502 41.137 257.856 39.4603 255.897 38.205L254.818 39.8888C256.516 40.9772 257.963 42.4411 259.157 44.2986L260.84 43.2171ZM255.888 38.1989C253.835 36.9158 251.467 36.2891 248.819 36.2891V38.2891C251.14 38.2891 253.131 38.8342 254.828 39.8949L255.888 38.1989ZM248.819 36.2891C246.171 36.2891 243.822 36.9156 241.81 38.205L242.89 39.8888C244.534 38.8344 246.497 38.2891 248.819 38.2891V36.2891ZM241.82 38.1989C239.809 39.4559 238.155 41.1387 236.859 43.2315L238.56 44.2842C239.702 42.4394 241.141 40.9816 242.88 39.8949L241.82 38.1989ZM236.854 43.2404C235.571 45.3609 234.622 47.8074 233.992 50.5667L235.942 51.0114C236.532 48.427 237.41 46.186 238.565 44.2752L236.854 43.2404ZM233.991 50.5704C233.365 53.3661 233.053 56.2992 233.053 59.3672H235.053C235.053 56.4352 235.351 53.6495 235.943 51.0078L233.991 50.5704ZM233.053 59.3672C233.053 62.4805 233.364 65.3931 233.993 68.1011L235.941 67.6489C235.351 65.1069 235.053 62.3477 235.053 59.3672H233.053ZM233.992 68.0974C234.622 70.8575 235.573 73.2844 236.859 75.3623L238.56 74.3096C237.408 72.45 236.531 70.2362 235.942 67.6526L233.992 68.0974ZM236.859 75.3623C238.157 77.4584 239.816 79.1222 241.835 80.3341L242.864 78.6191C241.134 77.5809 239.7 76.151 238.56 74.3096L236.859 75.3623ZM241.81 80.3184C243.822 81.6078 246.171 82.2344 248.819 82.2344V80.2344C246.497 80.2344 244.534 79.689 242.89 78.6347L241.81 80.3184ZM248.819 82.2344C251.467 82.2344 253.835 81.6077 255.888 80.3246L254.828 78.6286C253.131 79.6892 251.14 80.2344 248.819 80.2344V82.2344ZM255.882 80.3282C257.849 79.1178 259.5 77.46 260.84 75.3767L259.157 74.2952C257.965 76.1494 256.523 77.5854 254.834 78.6249L255.882 80.3282ZM260.849 75.3623C262.135 73.2844 263.086 70.8575 263.716 68.0974L261.766 67.6526C261.176 70.2362 260.299 72.45 259.148 74.3096L260.849 75.3623ZM263.735 67.9818L264.649 59.474L262.66 59.2604L261.746 67.7682L263.735 67.9818ZM273.866 118.359C273.866 116.455 273.4 114.74 272.441 113.248L270.759 114.33C271.488 115.463 271.866 116.795 271.866 118.359H273.866ZM272.45 113.262C271.479 111.697 269.948 110.46 267.951 109.511L267.093 111.317C268.845 112.15 270.034 113.162 270.75 114.316L272.45 113.262ZM267.969 109.52C265.971 108.52 263.424 107.795 260.364 107.317L260.055 109.293C262.995 109.752 265.323 110.433 267.075 111.308L267.969 109.52ZM260.364 107.317C257.297 106.837 253.609 106.602 249.311 106.602V108.602C253.544 108.602 257.122 108.834 260.055 109.293L260.364 107.317ZM249.311 106.602C244.97 106.602 241.309 106.814 238.339 107.245L238.626 109.224C241.469 108.811 245.026 108.602 249.311 108.602V106.602ZM238.341 107.244C235.329 107.675 232.847 108.352 230.934 109.309L231.828 111.098C233.478 110.273 235.73 109.638 238.624 109.224L238.341 107.244ZM230.962 109.295C229.018 110.193 227.527 111.357 226.598 112.834L228.29 113.9C228.954 112.846 230.089 111.901 231.8 111.111L230.962 109.295ZM226.598 112.834C225.688 114.279 225.248 115.946 225.248 117.797H227.248C227.248 116.273 227.606 114.986 228.29 113.9L226.598 112.834ZM225.248 117.797C225.248 120.044 225.983 122.205 227.391 124.267L229.043 123.139C227.826 121.357 227.248 119.581 227.248 117.797H225.248ZM227.398 124.277C228.796 126.274 230.678 128.024 233.018 129.535L234.103 127.855C231.944 126.461 230.263 124.882 229.036 123.13L227.398 124.277ZM233.018 129.535C235.365 131.051 238.13 132.259 241.3 133.172L241.853 131.25C238.835 130.381 236.257 129.246 234.103 127.855L233.018 129.535ZM241.296 133.171C244.443 134.091 247.82 134.547 251.42 134.547V132.547C247.99 132.547 244.804 132.112 241.857 131.251L241.296 133.171ZM251.42 134.547C255.018 134.547 258.222 134.091 261.018 133.16L260.385 131.262C257.837 132.112 254.854 132.547 251.42 132.547V134.547ZM261.018 133.16C263.773 132.241 266.128 131.046 268.061 129.558L266.842 127.973C265.119 129.298 262.974 130.399 260.385 131.262L261.018 133.16ZM268.084 129.54C269.959 128.01 271.412 126.265 272.419 124.3L270.64 123.387C269.772 125.079 268.506 126.615 266.819 127.991L268.084 129.54ZM272.501 124.08L273.837 118.596L271.894 118.123L270.558 123.607L272.501 124.08Z" fill="#AA8768"/>
</svg>
