<svg width="568" height="49" viewBox="0 0 568 49" fill="none" xmlns="http://www.w3.org/2000/svg">
<path d="M0.48 12.872C1.248 15.152 2.76 17.144 6.168 17.144C10.944 17.144 12.096 13.352 12.096 10.64V0.199999H10.008V10.64C10.008 11.864 9.84 15.248 6.168 15.32C3.84 15.392 2.784 13.904 2.208 12.248L0.48 12.872ZM17.3884 7.28C18.5404 6.824 19.9804 6.536 20.6284 6.464C22.3084 6.344 23.3164 6.704 23.3164 9.632V10.112C22.4284 9.896 21.4444 9.8 20.5084 9.8C18.1084 9.8 15.9244 10.712 15.9244 13.712C15.9244 14.768 16.5004 17.216 20.0764 17.216C21.1564 17.216 22.8124 16.76 23.8204 15.44L24.2764 17H25.3324V9.776C25.3324 7.4 25.0204 4.808 21.0844 4.808C19.5484 4.808 18.1324 5.192 16.8124 5.84L17.3884 7.28ZM23.3164 13.808C22.8124 14.648 21.6844 15.56 20.1484 15.56C18.8764 15.56 17.7484 14.912 17.7484 13.496C17.7484 11.792 19.1164 11.408 20.5564 11.408C21.5884 11.408 22.6444 11.576 23.3164 11.744V13.808ZM30.6898 8.024C30.7618 6.8 31.8418 6.464 33.0658 6.464C33.9298 6.464 35.2258 6.896 36.1138 7.256C36.3778 6.752 36.5218 6.344 36.7858 5.792C34.9378 4.904 33.3058 4.808 32.6098 4.808C30.3778 4.808 28.8418 6.008 28.8178 8.12C28.8178 10.4 30.7378 11 32.4658 11.576C33.9778 12.08 35.3458 12.488 35.3458 13.904C35.3458 14.96 34.2418 15.632 32.9698 15.632C31.6498 15.632 30.4978 15.248 29.3698 14.696C29.1538 15.176 28.9138 15.584 28.6978 16.064C30.0658 16.832 31.2898 17.192 33.1138 17.192C35.5618 17.192 37.4098 15.872 37.4098 13.88C37.4098 11.408 35.1778 10.592 33.3538 10.016C31.9138 9.584 30.6898 9.176 30.6898 8.024ZM41.7634 7.28C42.9154 6.824 44.3554 6.536 45.0034 6.464C46.6834 6.344 47.6914 6.704 47.6914 9.632V10.112C46.8034 9.896 45.8194 9.8 44.8834 9.8C42.4834 9.8 40.2994 10.712 40.2994 13.712C40.2994 14.768 40.8754 17.216 44.4514 17.216C45.5314 17.216 47.1874 16.76 48.1954 15.44L48.6514 17H49.7074V9.776C49.7074 7.4 49.3954 4.808 45.4594 4.808C43.9234 4.808 42.5074 5.192 41.1874 5.84L41.7634 7.28ZM47.6914 13.808C47.1874 14.648 46.0594 15.56 44.5234 15.56C43.2514 15.56 42.1234 14.912 42.1234 13.496C42.1234 11.792 43.4914 11.408 44.9314 11.408C45.9634 11.408 47.0194 11.576 47.6914 11.744V13.808ZM62.2601 8.024C62.3321 6.8 63.4121 6.464 64.6361 6.464C65.5001 6.464 66.7961 6.896 67.6841 7.256C67.9481 6.752 68.0921 6.344 68.3561 5.792C66.5081 4.904 64.8761 4.808 64.1801 4.808C61.9481 4.808 60.4121 6.008 60.3881 8.12C60.3881 10.4 62.3081 11 64.0361 11.576C65.5481 12.08 66.9161 12.488 66.9161 13.904C66.9161 14.96 65.8121 15.632 64.5401 15.632C63.2201 15.632 62.0681 15.248 60.9401 14.696C60.7241 15.176 60.4841 15.584 60.2681 16.064C61.6361 16.832 62.8601 17.192 64.6841 17.192C67.1321 17.192 68.9801 15.872 68.9801 13.88C68.9801 11.408 66.7481 10.592 64.9241 10.016C63.4841 9.584 62.2601 9.176 62.2601 8.024ZM73.3337 7.28C74.4857 6.824 75.9257 6.536 76.5737 6.464C78.2537 6.344 79.2617 6.704 79.2617 9.632V10.112C78.3737 9.896 77.3897 9.8 76.4537 9.8C74.0537 9.8 71.8697 10.712 71.8697 13.712C71.8697 14.768 72.4457 17.216 76.0217 17.216C77.1017 17.216 78.7577 16.76 79.7657 15.44L80.2217 17H81.2777V9.776C81.2777 7.4 80.9657 4.808 77.0297 4.808C75.4937 4.808 74.0777 5.192 72.7577 5.84L73.3337 7.28ZM79.2617 13.808C78.7577 14.648 77.6297 15.56 76.0937 15.56C74.8217 15.56 73.6937 14.912 73.6937 13.496C73.6937 11.792 75.0617 11.408 76.5017 11.408C77.5337 11.408 78.5897 11.576 79.2617 11.744V13.808ZM90.4511 4.832C89.2991 4.832 88.1951 5.12 87.1151 5.672V0.151999H85.1231V17H86.1551C86.3231 16.544 86.5631 15.872 86.6591 15.512C87.8591 16.904 89.2751 17.192 90.5711 17.192C95.0111 17.192 96.4271 13.592 96.4271 11.024C96.4271 8.504 95.0351 4.832 90.4511 4.832ZM90.4511 15.392C88.8911 15.392 87.6431 14.504 87.1151 13.784V7.52C87.8591 6.968 89.2991 6.488 90.2351 6.488C93.7391 6.488 94.4351 9.656 94.4351 11.024C94.4351 12.2 93.9311 15.392 90.4511 15.392ZM102.027 0.151999H100.035V17H102.027V0.151999ZM111.596 4.808C107.012 4.808 105.62 8.48 105.62 11C105.62 13.592 107.012 17.192 111.596 17.192C116.204 17.192 117.572 13.592 117.572 11C117.572 8.48 116.204 4.808 111.596 4.808ZM111.596 15.512C108.116 15.512 107.612 12.176 107.612 11C107.612 9.824 108.116 6.488 111.596 6.488C115.124 6.488 115.604 9.824 115.604 11C115.604 12.176 115.124 15.512 111.596 15.512ZM122.928 8.432C123.36 7.736 124.776 6.632 126.264 6.632C129.456 6.632 129.384 9.56 129.384 10.832V17H131.4V10.808C131.4 8 130.8 4.808 126.384 4.808C125.064 4.808 123.6 5.264 122.448 6.488L121.968 5H120.936V17H122.928V8.432ZM147.455 4.832C142.871 4.832 141.479 8.504 141.479 11.024C141.479 13.592 142.895 17.192 147.335 17.192C148.631 17.192 150.047 16.904 151.247 15.512C151.343 15.872 151.583 16.544 151.751 17H152.783V0.151999H150.791V5.672C149.711 5.12 148.607 4.832 147.455 4.832ZM147.455 15.392C143.975 15.392 143.471 12.2 143.471 11.024C143.471 9.656 144.167 6.488 147.671 6.488C148.607 6.488 150.047 6.968 150.791 7.52V13.784C150.263 14.504 149.015 15.392 147.455 15.392ZM157.615 7.28C158.767 6.824 160.207 6.536 160.855 6.464C162.535 6.344 163.543 6.704 163.543 9.632V10.112C162.655 9.896 161.671 9.8 160.735 9.8C158.335 9.8 156.151 10.712 156.151 13.712C156.151 14.768 156.727 17.216 160.303 17.216C161.383 17.216 163.039 16.76 164.047 15.44L164.503 17H165.559V9.776C165.559 7.4 165.247 4.808 161.311 4.808C159.775 4.808 158.359 5.192 157.039 5.84L157.615 7.28ZM163.543 13.808C163.039 14.648 161.911 15.56 160.375 15.56C159.103 15.56 157.975 14.912 157.975 13.496C157.975 11.792 159.343 11.408 160.783 11.408C161.815 11.408 162.871 11.576 163.543 11.744V13.808ZM171.396 8.432C171.828 7.736 173.244 6.632 174.732 6.632C177.924 6.632 177.852 9.56 177.852 10.832V17H179.868V10.808C179.868 8 179.268 4.808 174.852 4.808C173.532 4.808 172.068 5.264 170.916 6.488L170.436 5H169.404V17H171.396V8.432ZM192.444 11.024L197.892 17H200.196L194.508 10.664L199.716 5H197.508L192.444 10.616V0.175999H190.428V17H192.444V11.024ZM208.088 4.808C203.504 4.808 202.112 8.48 202.112 11C202.112 13.592 203.504 17.192 208.088 17.192C212.696 17.192 214.064 13.592 214.064 11C214.064 8.48 212.696 4.808 208.088 4.808ZM208.088 15.512C204.608 15.512 204.104 12.176 204.104 11C204.104 9.824 204.608 6.488 208.088 6.488C211.616 6.488 212.096 9.824 212.096 11C212.096 12.176 211.616 15.512 208.088 15.512ZM219.42 8.432C219.852 7.736 221.268 6.632 222.756 6.632C225.948 6.632 225.876 9.56 225.876 10.832V17H227.892V10.808C227.892 8 227.292 4.808 222.876 4.808C221.556 4.808 220.092 5.264 218.94 6.488L218.46 5H217.428V17H219.42V8.432ZM232.24 5H230.056L235.336 17.288H235.648L240.904 5H238.72L235.48 13.04L232.24 5ZM251.876 14.12C250.892 14.984 249.644 15.512 248.204 15.512C245.252 15.512 244.292 12.824 244.22 11.288H252.884C252.98 10.784 253.004 10.28 253.004 9.824C253.004 6.776 251.3 4.76 248.204 4.76C243.596 4.76 242.228 8.432 242.228 10.952C242.228 13.544 243.596 17.192 248.204 17.192C250.148 17.192 251.516 16.64 252.86 15.392L251.876 14.12ZM248.18 6.464C250.676 6.584 251.276 8.384 251.084 9.872H244.268C244.604 8.312 245.564 6.464 248.18 6.464ZM258.022 11.024L263.47 17H265.774L260.086 10.664L265.294 5H263.086L258.022 10.616V0.175999H256.006V17H258.022V11.024ZM269.916 8.024C269.988 6.8 271.068 6.464 272.292 6.464C273.156 6.464 274.452 6.896 275.34 7.256C275.604 6.752 275.748 6.344 276.012 5.792C274.164 4.904 272.532 4.808 271.836 4.808C269.604 4.808 268.068 6.008 268.044 8.12C268.044 10.4 269.964 11 271.692 11.576C273.204 12.08 274.572 12.488 274.572 13.904C274.572 14.96 273.468 15.632 272.196 15.632C270.876 15.632 269.724 15.248 268.596 14.696C268.38 15.176 268.14 15.584 267.924 16.064C269.292 16.832 270.516 17.192 272.34 17.192C274.788 17.192 276.636 15.872 276.636 13.88C276.636 11.408 274.404 10.592 272.58 10.016C271.14 9.584 269.916 9.176 269.916 8.024ZM282.214 5H280.222V17.024H282.214V5ZM280.006 1.52C280.006 2.216 280.534 2.744 281.23 2.744C281.926 2.744 282.478 2.216 282.478 1.52C282.478 0.823999 281.926 0.271999 281.23 0.271999C280.534 0.271999 280.006 0.823999 280.006 1.52ZM293.362 6.584V14.168C293.362 14.792 293.578 17.096 295.762 17.096C296.266 17.096 297.346 17.024 298.57 16.664L298.306 15.32C297.658 15.488 297.298 15.536 296.914 15.56C295.546 15.68 295.378 14.792 295.378 13.832V6.584H297.946V5H295.378V2.6H293.554L293.362 5H291.826V6.584H293.362ZM309.533 14.12C308.549 14.984 307.301 15.512 305.861 15.512C302.909 15.512 301.949 12.824 301.877 11.288H310.541C310.637 10.784 310.661 10.28 310.661 9.824C310.661 6.776 308.957 4.76 305.861 4.76C301.253 4.76 299.885 8.432 299.885 10.952C299.885 13.544 301.253 17.192 305.861 17.192C307.805 17.192 309.173 16.64 310.517 15.392L309.533 14.12ZM305.837 6.464C308.333 6.584 308.933 8.384 308.741 9.872H301.925C302.261 8.312 303.221 6.464 305.837 6.464ZM320.022 4.88C319.614 4.808 319.398 4.808 319.11 4.808C317.79 4.808 316.398 5.336 315.174 6.488L314.694 5H313.662V17H315.654V8.432C316.062 7.28 317.406 6.488 318.942 6.488C319.206 6.488 319.446 6.536 319.71 6.56L320.022 4.88ZM320.436 21.968C324.684 21.968 324.42 17.6 324.42 17.336V5H322.404V17.336C322.404 19.448 321.516 20.24 320.268 20.24C319.62 20.24 318.924 20.048 318.228 19.64L317.388 20.96C317.892 21.368 318.996 21.968 320.436 21.968ZM322.188 1.52C322.188 2.216 322.716 2.744 323.412 2.744C324.108 2.744 324.66 2.216 324.66 1.52C324.66 0.823999 324.108 0.271999 323.412 0.271999C322.716 0.271999 322.188 0.823999 322.188 1.52ZM329.482 7.28C330.634 6.824 332.074 6.536 332.722 6.464C334.402 6.344 335.41 6.704 335.41 9.632V10.112C334.522 9.896 333.538 9.8 332.602 9.8C330.202 9.8 328.018 10.712 328.018 13.712C328.018 14.768 328.594 17.216 332.17 17.216C333.25 17.216 334.906 16.76 335.914 15.44L336.37 17H337.426V9.776C337.426 7.4 337.114 4.808 333.178 4.808C331.642 4.808 330.226 5.192 328.906 5.84L329.482 7.28ZM335.41 13.808C334.906 14.648 333.778 15.56 332.242 15.56C330.97 15.56 329.842 14.912 329.842 13.496C329.842 11.792 331.21 11.408 332.65 11.408C333.682 11.408 334.738 11.576 335.41 11.744V13.808ZM343.264 8.432C343.696 7.736 345.112 6.632 346.6 6.632C349.792 6.632 349.72 9.56 349.72 10.832V17H351.736V10.808C351.736 8 351.136 4.808 346.72 4.808C345.4 4.808 343.936 5.264 342.784 6.488L342.304 5H341.272V17H343.264V8.432ZM354.62 18.968C354.62 20.384 355.796 22.472 360.02 22.472C364.052 22.472 364.964 20.12 365.036 19.16C365.108 17.6 364.46 16.064 360.62 15.992C359.348 15.992 358.964 15.968 358.7 15.968C357.716 15.968 356.516 15.416 356.516 14.432C356.516 13.856 356.78 13.064 358.028 13.184C358.556 13.376 359.156 13.472 359.852 13.472C363.212 13.472 364.268 10.952 364.268 9.128C364.268 8.432 364.028 7.52 363.572 6.656L365.252 4.856L364.22 3.848L362.42 5.48C361.724 5.072 360.884 4.808 359.852 4.808C356.468 4.808 355.436 7.328 355.436 9.128C355.436 10.016 355.796 11.192 356.588 12.248C355.532 12.536 354.884 13.376 354.956 14.456C354.956 15.08 355.292 16.064 356.42 16.496C354.956 17.24 354.644 18.224 354.62 18.968ZM359.852 11.864C357.74 11.864 357.428 9.824 357.428 9.128C357.428 8.456 357.74 6.368 359.852 6.368C361.94 6.368 362.276 8.456 362.276 9.128C362.276 9.824 361.94 11.864 359.852 11.864ZM359.852 20.84C356.876 20.768 356.372 19.448 356.372 19.064C356.372 18.224 356.876 17.6 359.852 17.6C362.828 17.6 363.38 18.2 363.26 19.088C363.26 19.352 362.996 20.84 359.852 20.84ZM370.381 11.024L375.829 17H378.133L372.445 10.664L377.653 5H375.445L370.381 10.616V0.175999H368.365V17H370.381V11.024ZM381.513 7.28C382.665 6.824 384.105 6.536 384.753 6.464C386.433 6.344 387.441 6.704 387.441 9.632V10.112C386.553 9.896 385.569 9.8 384.633 9.8C382.233 9.8 380.049 10.712 380.049 13.712C380.049 14.768 380.625 17.216 384.201 17.216C385.281 17.216 386.937 16.76 387.945 15.44L388.401 17H389.457V9.776C389.457 7.4 389.145 4.808 385.209 4.808C383.673 4.808 382.257 5.192 380.937 5.84L381.513 7.28ZM387.441 13.808C386.937 14.648 385.809 15.56 384.273 15.56C383.001 15.56 381.873 14.912 381.873 13.496C381.873 11.792 383.241 11.408 384.681 11.408C385.713 11.408 386.769 11.576 387.441 11.744V13.808ZM401.295 13.568C400.839 14.288 399.447 15.368 397.959 15.368C394.767 15.368 394.839 12.44 394.839 11.168V5H392.823V11.192C392.823 14 393.423 17.192 397.839 17.192C399.159 17.192 400.623 16.736 401.775 15.512L402.255 17H403.287V5H401.295V13.568ZM419.654 17.144C424.238 17.144 425.63 13.472 425.63 10.952C425.63 8.384 424.214 4.784 419.774 4.784C418.454 4.784 417.038 5.096 415.862 6.464C415.766 6.104 415.526 5.432 415.358 4.976H414.326V21.824H416.318V16.304C417.398 16.856 418.502 17.144 419.654 17.144ZM419.654 6.584C423.134 6.584 423.638 9.776 423.638 10.952C423.638 12.32 422.942 15.488 419.438 15.488C418.502 15.488 417.062 15.008 416.318 14.456V8.192C416.822 7.496 418.094 6.584 419.654 6.584ZM431.206 5H429.214V17.024H431.206V5ZM428.998 1.52C428.998 2.216 429.526 2.744 430.222 2.744C430.918 2.744 431.47 2.216 431.47 1.52C431.47 0.823999 430.918 0.271999 430.222 0.271999C429.526 0.271999 428.998 0.823999 428.998 1.52ZM437.535 0.151999H435.543V17H437.535V0.151999ZM443.816 5H441.824V17.024H443.816V5ZM441.608 1.52C441.608 2.216 442.136 2.744 442.832 2.744C443.528 2.744 444.08 2.216 444.08 1.52C444.08 0.823999 443.528 0.271999 442.832 0.271999C442.136 0.271999 441.608 0.823999 441.608 1.52ZM449.904 17V8.144C450.36 7.304 451.776 6.464 453.168 6.464C455.376 6.464 456.408 7.616 456.408 10.808V17H458.376V10.808C458.376 8.096 457.752 4.832 453.552 4.832C452.208 4.832 450.936 5.336 449.904 6.2V0.199999H447.912V17H449.904ZM462.724 7.28C463.876 6.824 465.316 6.536 465.964 6.464C467.644 6.344 468.652 6.704 468.652 9.632V10.112C467.764 9.896 466.78 9.8 465.844 9.8C463.444 9.8 461.26 10.712 461.26 13.712C461.26 14.768 461.836 17.216 465.412 17.216C466.492 17.216 468.148 16.76 469.156 15.44L469.612 17H470.668V9.776C470.668 7.4 470.356 4.808 466.42 4.808C464.884 4.808 463.468 5.192 462.148 5.84L462.724 7.28ZM468.652 13.808C468.148 14.648 467.02 15.56 465.484 15.56C464.212 15.56 463.084 14.912 463.084 13.496C463.084 11.792 464.452 11.408 465.892 11.408C466.924 11.408 467.98 11.576 468.652 11.744V13.808ZM476.506 8.432C476.938 7.736 478.354 6.632 479.842 6.632C483.034 6.632 482.962 9.56 482.962 10.832V17H484.978V10.808C484.978 8 484.378 4.808 479.962 4.808C478.642 4.808 477.178 5.264 476.026 6.488L475.546 5H474.514V17H476.506V8.432ZM495.393 6.584V14.168C495.393 14.792 495.609 17.096 497.793 17.096C498.297 17.096 499.377 17.024 500.601 16.664L500.337 15.32C499.689 15.488 499.329 15.536 498.945 15.56C497.577 15.68 497.409 14.792 497.409 13.832V6.584H499.977V5H497.409V2.6H495.585L495.393 5H493.857V6.584H495.393ZM511.564 14.12C510.58 14.984 509.332 15.512 507.892 15.512C504.94 15.512 503.98 12.824 503.908 11.288H512.572C512.668 10.784 512.692 10.28 512.692 9.824C512.692 6.776 510.988 4.76 507.892 4.76C503.284 4.76 501.916 8.432 501.916 10.952C501.916 13.544 503.284 17.192 507.892 17.192C509.836 17.192 511.204 16.64 512.548 15.392L511.564 14.12ZM507.868 6.464C510.364 6.584 510.964 8.384 510.772 9.872H503.956C504.292 8.312 505.252 6.464 507.868 6.464ZM522.053 4.88C521.645 4.808 521.429 4.808 521.141 4.808C519.821 4.808 518.429 5.336 517.205 6.488L516.725 5H515.693V17H517.685V8.432C518.093 7.28 519.437 6.488 520.973 6.488C521.237 6.488 521.477 6.536 521.741 6.56L522.053 4.88ZM529.787 4.832C528.635 4.832 527.531 5.12 526.451 5.672V0.151999H524.459V17H525.491C525.659 16.544 525.899 15.872 525.995 15.512C527.195 16.904 528.611 17.192 529.907 17.192C534.347 17.192 535.763 13.592 535.763 11.024C535.763 8.504 534.371 4.832 529.787 4.832ZM529.787 15.392C528.227 15.392 526.979 14.504 526.451 13.784V7.52C527.195 6.968 528.635 6.488 529.571 6.488C533.075 6.488 533.771 9.656 533.771 11.024C533.771 12.2 533.267 15.392 529.787 15.392ZM540.115 7.28C541.267 6.824 542.707 6.536 543.355 6.464C545.035 6.344 546.043 6.704 546.043 9.632V10.112C545.155 9.896 544.171 9.8 543.235 9.8C540.835 9.8 538.651 10.712 538.651 13.712C538.651 14.768 539.227 17.216 542.803 17.216C543.883 17.216 545.539 16.76 546.547 15.44L547.003 17H548.059V9.776C548.059 7.4 547.747 4.808 543.811 4.808C542.275 4.808 540.859 5.192 539.539 5.84L540.115 7.28ZM546.043 13.808C545.539 14.648 544.411 15.56 542.875 15.56C541.603 15.56 540.475 14.912 540.475 13.496C540.475 11.792 541.843 11.408 543.283 11.408C544.315 11.408 545.371 11.576 546.043 11.744V13.808ZM554.112 5H552.12V17.024H554.112V5ZM551.904 1.52C551.904 2.216 552.432 2.744 553.128 2.744C553.824 2.744 554.376 2.216 554.376 1.52C554.376 0.823999 553.824 0.271999 553.128 0.271999C552.432 0.271999 551.904 0.823999 551.904 1.52ZM560.225 11.024L565.673 17H567.977L562.289 10.664L567.497 5H565.289L560.225 10.616V0.175999H558.209V17H560.225V11.024ZM8.304 31.032H7.992L0.72 48H2.952L4.848 43.368H11.448L13.392 48H15.672L8.304 31.032ZM8.136 35.376L10.752 41.688H5.544L8.136 35.376ZM20.2948 39.432C20.7268 38.736 22.1428 37.632 23.6308 37.632C26.8228 37.632 26.7508 40.56 26.7508 41.832V48H28.7668V41.808C28.7668 39 28.1668 35.808 23.7508 35.808C22.4308 35.808 20.9668 36.264 19.8148 37.488L19.3348 36H18.3028V48H20.2948V39.432ZM37.6269 35.832C33.0429 35.832 31.6509 39.504 31.6509 42.024C31.6509 44.592 33.0669 48.192 37.5069 48.192C38.8029 48.192 40.2189 47.904 41.4189 46.512C41.5149 46.872 41.7549 47.544 41.9229 48H42.9549V31.152H40.9629V36.672C39.8829 36.12 38.7789 35.832 37.6269 35.832ZM37.6269 46.392C34.1469 46.392 33.6429 43.2 33.6429 42.024C33.6429 40.656 34.3389 37.488 37.8429 37.488C38.7789 37.488 40.2189 37.968 40.9629 38.52V44.784C40.4349 45.504 39.1869 46.392 37.6269 46.392ZM47.7868 38.28C48.9388 37.824 50.3788 37.536 51.0268 37.464C52.7068 37.344 53.7148 37.704 53.7148 40.632V41.112C52.8268 40.896 51.8428 40.8 50.9068 40.8C48.5068 40.8 46.3228 41.712 46.3228 44.712C46.3228 45.768 46.8988 48.216 50.4748 48.216C51.5548 48.216 53.2108 47.76 54.2188 46.44L54.6748 48H55.7308V40.776C55.7308 38.4 55.4188 35.808 51.4828 35.808C49.9468 35.808 48.5308 36.192 47.2108 36.84L47.7868 38.28ZM53.7148 44.808C53.2108 45.648 52.0828 46.56 50.5468 46.56C49.2748 46.56 48.1468 45.912 48.1468 44.496C48.1468 42.792 49.5148 42.408 50.9548 42.408C51.9868 42.408 53.0428 42.576 53.7148 42.744V44.808Z" fill="#C0C0C0"/>
</svg>
